<svg xmlns="http://www.w3.org/2000/svg" width="864" height="864" viewBox="0 0 864 864"><path d="M449,353.1c0-6.38.82-11.88,3.85-17.09,7.23-12.5,21.63-19.51,36-19.51a20.4,20.4,0,0,1,10.06,2.36,43.91,43.91,0,0,1,11.82,9.72c1.28,1.59,2.47,2.89,3.68,4.59,3.15,4.37,7.49,12.39,7.49,18.17,0,9.07-1,12.67-5.5,19.87l-3.86,4.71a39.27,39.27,0,0,1-7.34,5.64c-1.05.54-1.56.91-2.66,1.47-16.36,8.17-39.26,3.6-48.42-12.89a28.11,28.11,0,0,1-1.53-2.9A36.84,36.84,0,0,1,449,353.1Zm36.59,37.78a41.55,41.55,0,0,0,28.12-10.23,16.44,16.44,0,0,0,2.5-2.24c.48-.59.45-.71,1-1.33a37.1,37.1,0,0,0,7.57-14,35.31,35.31,0,0,0,1.22-8.51c0-15.79-10.41-30.72-24-37.07l-7.37-2.95c-10.26-3.32-23.9.17-32.12,5.75l-4.17,3.21a37.61,37.61,0,0,0-13.15,24c-.08.8,0,1.53,0,2.33-.17,3.26-.39,0,0,4.45.26,3.14-.28,1.87.8,6.57a37.86,37.86,0,0,0,13.35,21.21C465.9,387.4,476.53,390.88,485.57,390.88Z" fill="#fff" fill-rule="evenodd"/><path d="M214.92,528.17l3.49-3.66a280.07,280.07,0,0,1,19.79-20.95l1.72-1.53a.55.55,0,0,0,.17-.14L253.87,490c.88-.71,1.84-1.41,2.69-2s1.76-1.28,2.78-2c2-1.36,3.77-2.75,5.81-3.94l9-5.5c6.07-3.65,12.42-6.91,18.71-10.2l6.43-3.29c1.45-.71,2.47-1,2.47-2.86,0-1.45-2.58-1.53-4-1.9l-9.89-1.9c-9.38-1.62-17.83-1.81-28.32-1.81,1.22-1.65,11.79-6.78,14.18-8l5-2.35a134.71,134.71,0,0,1,21.43-8.08l17.61-4.56a1.57,1.57,0,0,0,.39-2.27c-.85-1.25-6.15-3.06-7.54-3.69-1.64-.73-3.48-1.67-5.07-2.32L298,420c-1.05-.49-1.82-.51-2.44-1.36,2.89,0,5.7-.88,8.53-1.19,6-.66,11.88-1.51,18-1.48,2.89,0,8,.82,8-2.07,0-1.84-4.57-3.43-5.62-5,2.55.06,11.65,3.92,13,6.16.23.39,1.17,4.47,1.36,5.13a108.26,108.26,0,0,0,5.16,14,42.25,42.25,0,0,1,2,4.51c-3.43,0-5.45-.88-8.88-.88-2.92,0-17.09.17-17.09,3.23,0,1.59,1.14,2.07,2.55,2.75a129.64,129.64,0,0,1,18.77,11.05,14.48,14.48,0,0,1,2.86,2.13l-14.57,4c-6.12,2.07-12.41,4.14-18.4,6.69-1.33.57-3.62,1.17-3.62,2.87,0,2.8,3.48,2.07,5.32,2.07a51,51,0,0,1,6.72.65l9.1,1.84a24.47,24.47,0,0,0,3.06.77v.59c-1.67.43-10.06,6.83-11.39,7.8-5.1,3.65-9.87,7.82-14.66,11.87l-11.51,10.63c-1,1.08-4.33,3.8-4.33,5.39,0,.85.93,2.07,1.76,2.07,1.38,0,9.38-4.08,11.42-5.1L314.5,504c2.58-1.11,5.13-2.7,7.88-3.35a110.62,110.62,0,0,1-4.56,13.47c-.59,1.55-1.79,3.62-1.84,5.18,0,.8.85,2,1.67,2,3.06,0,7.4-4.43,9.13-6.52l6.69-9c1.19-1.56,2.12-2.84,3.29-4.37l6.91-9c.68-.94,2.67-3.85,3.8-4.17l1.67,16a43.86,43.86,0,0,1,.4,5.81c1.93,1.33,3.12,1.9,6.15-1.79a18.24,18.24,0,0,0,3.46-6.88c1.13-3.86,1.9-8.05,3.54-11.8a30.39,30.39,0,0,0,1.59-3.71c.94.62,1.05,1.28,1.53,2.3.26.51.26.48.51,1,.68,1.19,1.22,2.18,1.9,3.43a12.38,12.38,0,0,0,1.08,1.56c1.19,1.7,2.21,3.85,4.73,3.85,3.52,0,5.22-5.41,6.49-8l2.53-4.85c.48-1.08.65-1.3,1.13-2.41.31-.68.28-.59.59-1.19a8.75,8.75,0,0,1,.77-1.3c1.19.28,6.95,3.54,8.65,4.33,1.5.69,3.06,1.31,4.59,1.9l4.76,1.73c0,7.29,2.49,8.79.28,18.32,0-.06-.11-.23-.11-.18l-.48-.7c-.77-1.17-3.57-7.12-5-7.12-3.32,0-2.52,5.61-4.51,10.86-.39,1.05-.53,1.81-.9,2.92s-.68,1.87-1,2.8c-2.61,7.2-6.84,13.81-11.4,19.9a17.08,17.08,0,0,1-1.7,2.13,15.42,15.42,0,0,1-2,2.13,104,104,0,0,0-2.3-23.36c-1-4.11-.28-6.83-4.48-5.87-.76,3.32-1,6.63-1.58,9.92a78.75,78.75,0,0,1-2.3,9.53c-4.28,13.91-13.12,24.94-21.71,36.42l-3.86,5s-.62.85-.62.85c-.51.51-.06.34-.91.57a109.07,109.07,0,0,0-2.83-36.71c-.29-1.11-.34-2.24-1-2.84a1.81,1.81,0,0,0-2.58.06c-.85.91-1.22,4.45-1.62,6.07A83.15,83.15,0,0,1,327,550.39a70.14,70.14,0,0,1-6.75,12.44c-4.05,6.16-8.47,11.82-13.12,17.58l-1.73,2.1a24.18,24.18,0,0,1-3.91,4l.31-26.28c0-1.64-.29-1.87-.31-3.51a50.74,50.74,0,0,0-1.14-10.09c-.88-3.86-5.72.05-7.88,1.36-8.16,4.9-11.05,7.68-18.11,12.9l-21.23,18.59c-3.26,2.61-6.18,5.64-9.36,8.36l-.76.71c-2.7,2.5-6.44,5-8.08,8.14l-12.53,14.31c2.15-9.3,7.09-21.57,11.2-29.79,2.32-4.62,4.56-9.1,7.17-13.49,1.36-2.24,2.49-4.23,3.94-6.41s2.58-4.08,4.11-6.21l11-14.34c1.45-1.87,3.46-3.57,4.88-5.44,1.9-2.41,12.64-12.36,13-13a1.57,1.57,0,0,0,.14-1.7c-1.25-2.86-12.42-3.8-15.11-3.8-6.89,0-13.07,1.34-19.64,2.5l-6,1.33a103.78,103.78,0,0,0-11.37,3.37c-2.49,1-8.22,2.75-10.46,4.31ZM464,518.67a4.58,4.58,0,0,1-1.47-.28v-.6a21.51,21.51,0,0,0,4.14-.59A3.25,3.25,0,0,1,464,518.67Zm-2.95-1.76a8,8,0,0,1-.88-2.07c1.51,0,2.5-.31,4.43-.28h5c-.65,1-.34.68-1.67,1Zm-1.47-5.3c1.3-.65,11.51-.59,14.14-.59-.9,1.39-.82,1.16-2.92,1.16-1.72,0-2.23.34-4.13.31a24.47,24.47,0,0,0-3.86.28C459.35,513.09,459.81,512.52,459.61,511.61Zm.28-5v1.47c3.32.76,13.3-.51,17.72-.6-1.19,1.76-1.05,1-3.46,1.25-3.6.45-10.77,0-14.26.82-.76-1.61-.59-2.46-.59-4.45l21.54-.56c-1,1.47-1,.62-4.51,1.07a56.19,56.19,0,0,1-5.81.09c-1.27.08-1.07.22-2.35.31C465.51,506.14,462.5,506,459.89,506.6Zm-.59-3.55v-.31c1.59,0,3-.28,5-.28h5.62v.28h-5.3C462.42,502.74,461.51,503.05,459.3,503.05Zm17.12-.91c.34-.34,1.7.51.37.15C476.76,502.26,475.91,502.65,476.42,502.14Zm-1.48,0,.09.09S474.92,502.17,474.94,502.14Zm6.81-.28h1.76v.28h-1.76Zm-22.45-1.47H462v.28H459.3Zm3.54-2.07a2.71,2.71,0,0,1,2.58-1.31l8.65-.17c5.18,0,9.29.29,14.45.29v.31c-4.67,0-8.56.31-13,.28Zm26.93-2.3c-.26-.74-.14-1-1-1H469.05a14.28,14.28,0,0,0-2.07.31c.34-.51,2.95-2.66,3.54-2.66h8.56c2.21,0,11.29.48,13,.87Zm4.05-4.19c-1.3-.12-3.4-.49-4.73-.57-.85-.09-1.73,0-2.58-.06a127.92,127.92,0,0,0-13.63-.25c1.7-2.53,3.68-2.38,6.2-2.38,1.87,0,3.75,0,5.62,0,2.24,0,3.2.31,5.3.31.9,0,5-.11,5.58.06C497.11,489.45,495.13,489.87,493.82,491.83Zm3.86-4.74L482,487a32.18,32.18,0,0,1-4.06.08c.57-1.58,2.16-1.9,3.72-1.64l17.23.48C498.67,486.58,498.56,487.09,497.68,487.09Zm-89.43-1.47c.73-1-.49-.28,3.06-.8a23.48,23.48,0,0,1,3.74-.36C412.81,486.41,410.54,485.62,408.25,485.62ZM500,483.86H486.45c-1.95,0-2.55-.31-4.42-.31,1.19-1.76,2.41-2.35,5.3-2.35H502.1C504.09,481.2,501.31,483.86,500,483.86ZM406.49,485c-1.22-.08-5-1.19-5.61-2a81.32,81.32,0,0,0,8.3-.54c2.84-.31,5.36-.73,7.94-.93-.6,1.08,0,.51-.85.93a3.15,3.15,0,0,1-1.5.23c-1.65.06-2.24.23-3.55.31C408.93,483.1,405.1,482.16,406.49,485Zm80-5.3,3-2.89c1.16-.68,4-.4,5.38-.17l11.4.4c-.54,2.24-1.67,2.38-3.23,2.38Zm-85,.6a42.84,42.84,0,0,0-5.44.48c-1,.08-3.37-1-3.72-2h7.09c6.86,0,16.73-1.47,20.07-1.47-1.47,2.78-1,2.3-8,2.64l-7.4.53C403.2,480.57,402.8,480.32,401.47,480.32Zm-18.88-7.09c6.69,0,13.38,0,20.07,0l14.46-.57c1.93,0,2.86-.31,5-.31a7.61,7.61,0,0,1-.77,1.87c-1,1.68-2.21,1.25-4.56,1.36-1.28.09-1.22.29-2.64.32l-23.33.28C387.61,476.18,386.7,476.83,382.59,473.23Zm109.19,1.48c2.1-3.18,4.68-2.39,8.25-2.36,2.16,0,3.09-.31,5-.31h5.61c-3.06,4.56-2,2.95-13.29,2.95C495.13,475,493.6,474.71,491.78,474.71Zm-69.64-4.43c1.19,0,.76,0,1.16.6h-3.83c.06-.06.17-.17.2-.11s.14-.09.2-.09Zm-44.57-.88,5.56.34a48.85,48.85,0,0,0,5.64.23l-10.32.31C377.15,470,378,470.28,377.57,469.4Zm118.63,1.17c1.59-2.38,2.81-2.07,7.66-2.07,2.07,0,2.95-.29,4.73-.29s3.35,0,5,0a5.7,5.7,0,0,1-1.08,1.28c-1.1.74-9.55.68-11.62.79C499.32,470.37,498.22,470.57,496.2,470.57Zm-123.95-5.3a53,53,0,0,1,5.84.36c3.17.43,5.83.37,8.61.51,3.89.2,10.83.91,14.77.88,2.44,0,3.71.32,5.9.32,4.56,0,7.71-.66,10.4,1.1.54.34.23.11.51.37-2.35,0-3.83.68-8.33.08l-16.76-1a50.47,50.47,0,0,1-5.38-.51c-3.29-.42-7-.37-10.92-.91C374.37,466.17,373.46,467.08,372.25,465.27Zm143.12.87c-2.58,0-14.18.34-15.34.88.63-2.26,3.54-1.95,7.09-2,1.56-.05,2.24-.31,4.11-.31H516C515.62,466,515.4,465.15,515.37,466.14Zm-12.08-2.66a12.37,12.37,0,0,1,1.08-1.25,15.17,15.17,0,0,0,1-1.39c2.07,0,2.89-.31,5-.31,2.75,0,5.95-.31,8.56.31-.68,1.28-.65,1.76-2.64,1.79C512.76,462.66,506.15,463.48,503.29,463.48Zm-135.75-2.64,22.59,1.9c4,.57,15.71,1,19.53,1.7l2.13,1.11c-6.46,0-30.39-2.07-39.8-3C369.81,462.35,368.56,462.4,367.54,460.84Zm153.16-2.07h-6.81c-2.6,0-4.08.29-6.49.29,1.87-2.78,2.18-2.64,5.93-2.92,3-.26,5.72-.31,8.84-.31C521.8,457.36,521,457.41,520.7,458.77Zm2.92-4.45c-1,0-2.22,0-3.24,0l-9.44.88c1.42-2.69,1.79-2.38,5.62-2.35,3,0,4.9-.31,8-.31Zm-164-2.63c4.14,0,15.11,2,20.27,2.75a130.43,130.43,0,0,0,16.05,1.36c1.73,0,1.3-.12,2.32.62a5,5,0,0,1,1.48,1.48l-8.76-1.28c-6.18-1.05-16.59-2.66-22.48-3.2-1.25-.09-3.86-.94-3.86.93,0,1.45,2.78,1.62,4.28,1.9,7,1.31,25.85,3.6,33.2,4a5.82,5.82,0,0,1,4.11,2.07c-1,0-1.93-.23-3.21-.34l-29.19-3c-1.87-.2-4.31-.37-6.38-.68-4.42-.71-2.52-.17-6.29-4.34Zm154.92-.6,1.25-1.41c1.58.08,2.83.25,5,.22h5.61c-.74,1-1,.54-2.67.63C521.35,450.61,517.61,451.09,514.49,451.09Zm-158.77-4.42,14.88,2.24c6.38.94,13.92,2.21,20.21,2.81,2.07.19,2.92.59,3.86,2-1.84,0-2.95-.26-5-.29l-13.83-2.09c-1.39-.29-3.18-.54-4.54-.8-1.61-.31-2.75-.56-4.45-.85l-7-1c-1.53-.06-1.08.23-2,.88C357.14,448.65,356.4,447.66,355.72,446.67Zm172.06,1.19H517.44c.25-.93.62-1.08,1.19-1.78s1-1.08,1.47-1.76a2.09,2.09,0,0,0,1.76.59,26.42,26.42,0,0,0,2.66,0c2.07,0,2.81.32,4.74.32A18.2,18.2,0,0,1,527.78,447.86Zm-200.09-5.92c1.78,0,5.41-.88,9.43-.88l10.35.31,3.4,5.41c1.16,1.9,2.36,3.55,3.63,5.25.71,1,1.28,1.5,2,2.44A156.24,156.24,0,0,0,367,466.37c.88.88,1.48,1.16,2.38,2.07,2,2,10.86,9,12.9,9.53,0,1.27-.79,2.6-1.47,4.11l-3.89,7.34c-.45.68-.82,1-1.16,1.47a22.5,22.5,0,0,0-.85,2.13,5.34,5.34,0,0,1-1.84-1.14c-1.5-1.1-3.55-5.41-4.57-7.23-1.95-3.51-3.45-7.73-6.4-2.69-3.94,6.69-4.62,8.93-6.3,16.73-.42,2-1.44,5.47-2.72,6.4,0-2.35-1.22-16.27-2.35-18.59-3.29-6.69-5.44-2.21-7.06-.23L333,499.85c-.54.74-1,1.27-1.56,1.95-1,1.28-1.9,2.84-2.83,4.26-1.22,1.81-4.56,6.46-6.27,7.59l3.38-10.17c.31-.91.51-1.28.76-2.21.63-2.36,2.21-4.88.17-6.13-1.13-.71-3.17.48-5,1.31-2.32,1-4.22,1.9-6.57,2.89-1.19.48-2.13.91-3.29,1.42-2.41,1-8.53,4.05-9.81,4.33.65-1,11.17-10.17,13.13-11.62l11.76-8.9c.88-.62,1.56-1.13,2.44-1.7l7.48-4.93c2.16-1.25,2.67-3.43.28-4.4-.85-.34-1.55-.59-2.35-.9l-5-1.53c-1.53-.43-3.26-.77-5-1.2a27.39,27.39,0,0,0-5.67-.82l.4-.2a2.4,2.4,0,0,0,.37-.22c2.78-1.31,12.42-4.25,15.22-5.13s5.47-1.42,8.39-2.24c3.49-1,11.4-1.45,5.3-6-5-3.65-6.66-4.64-11.62-7.85-1.05-.68-1.93-1.27-3.09-1.9Zm202.45,1.47-8.85-.28a10,10,0,0,1,1.16-2.07h9.16A4.41,4.41,0,0,1,530.14,443.41Zm-177.65-2a27.61,27.61,0,0,1,4.85.74l29.36,5.16a4.32,4.32,0,0,1,3.55,2.35c-3.18,0-34.59-6.44-36.29-5.61C353.48,443.1,353,442.33,352.49,441.37ZM529.26,439l-5,.31c.91-1.76,1.16-1.22,3.83-1.19h5.3C532.89,440.21,532.46,439,529.26,439Zm-179.72-3.23c1.59,0,15.82,3.37,18.77,3.94l13.91,2.92c2.41.42,2.41.48,3.6,2.26l-17.29-3.65c-3-.68-5.95-1.05-9-1.67l-9.15-1.45c-.26-1.05,0-.09-.4-1.08C349.85,436.61,349.68,436.07,349.54,435.76Zm185.3.28h-8.25c2.18-3.26,1.36-2.66,5-2.66a12.59,12.59,0,0,1,4.14.59C535.44,435.3,535.15,434.94,534.84,436Zm-187.68-5.3,9.58,1.93c3.26.73,6,1.7,9,2.49l13.78,3.66c2.38.57,2.21.85,3.35,2.55L374,438.76c-8.13-2.07-15.16-3.91-23.44-5.5C346.59,432.5,347.78,432.07,347.16,430.74Zm190.06,1.16c-1.73,0-2-.25-3.54-.28s-2.33-.28-3.54-.28a9.28,9.28,0,0,1,1.47-2.39h6.77C538.27,430.31,537.56,430.4,537.22,431.9ZM345.4,426.6a29,29,0,0,1,4.71.91l22.9,5.1c3.15.71,2.64-.06,5.27,3.32.57.71.88.9,1.36,1.58l-30.53-8.73C345.12,427.93,346.28,428.59,345.4,426.6Zm194.17.6h-6.49c1.14-4.31,5.13-2.67,8-2.67A30.19,30.19,0,0,1,539.57,427.2Zm-195.64-4.74c2.92,0,13,2.58,16.35,3.43l12,2.72c.82.34,1.7,1.79,2.33,2.73a17.22,17.22,0,0,1-3.89-.86l-23.81-6C344.81,424,344.24,424.9,343.93,422.46Zm198.31.31-6.21-.31c.68-1.27.65-1.75,2.64-1.78,1.44,0,3,0,4.45,0C542.81,421.81,542.55,421.44,542.24,422.77ZM342.45,418l19.7,4.79c3.86,1.05,4.82,2.1,7.74,1.42.31,1.1.57.74.88,2.07-6.72-1.59-13.35-4.23-21.71-5.76C343.87,419.63,342.71,420.14,342.45,418Zm201.86.88c-8.34-.68-5.76.62-5-2.07C546.46,416.85,544.9,416.57,544.31,418.92Zm-203-5c2.21.2,10.15,2.38,13.16,3.09,3.79.85,10.77,3.29,12.81,2.81.31,1.33.59,1,.91,2.07l-13.89-3.52c-4.77-1-7-1.1-11.23-1.75C341.35,416.31,341.49,415.66,341.26,413.9Zm199.51.88c.45-1.76,1.84-1.16,5.89-1.16C546.15,415.86,546.32,414.78,540.77,414.78Zm1.47-2.64c.14-1.78.65-1.19,5.3-1.19v.88C545.75,411.83,544.42,412.14,542.24,412.14Zm1.47-2.94c.4-1.7.46-1.19,4.71-1.19v1.19l-2.78-.12C545,409.11,544.48,409.2,543.71,409.2Zm-203.33-.6c.49-.23,12.45,3.09,13.47,3.37,2.69.68,8.22,1.11,10.2,3.07a.41.41,0,0,0,.15.14,4.13,4.13,0,0,1,1.55,2.58L352,414.07c-2.64-.51-4.71-1-7.43-1.39-1.93-.28-4.51.6-4.25-3.8C340.33,408.83,340.41,408.69,340.38,408.6Zm-.28-3.54c4.2,0,16,3.68,21.06,5.47.91.31.77.2,1.36.74-3.65-.32-7.68-1.62-11.17-2.44-1.75-.43-3.68-.94-5.41-1.36l-5.84-1.22Zm205.09,1.19c.34-1.36.17-.91,4.14-.91C549,406.7,549.13,406.25,545.19,406.25Zm.88-2.38c.7-.94,1.64-.6,3.26-.6a1.62,1.62,0,0,1-1.22.6C547.63,403.92,546.6,403.87,546.07,403.87Zm-206-1.76c1.42-1.19,17.12,3,19.39,3.63,1.45.4,1.5.23,1.84,1.67L354,405c-5-1.22-7.09-1.3-11.2-2.1C341.57,402.68,340.75,403,340.1,402.11Zm207.16-.88h2.07v.28h-2.07Zm-205.12-2.38c2.47.2,14.52,2.55,16.67,3.4,1.59.63.68.26,1.33,1.62-1.56-.37-2.89-.77-4.36-1.22s-3.09-.6-4.71-.91l-9.81-1.42C341.55,399.25,341.57,399.7,342.14,398.85Zm207.19-1.47v2.07c-1.25-.66-.74.08-.77-.83S548.93,397.66,549.33,397.38ZM359,400c-3.37-.79-10.4-2.3-13.58-2.35,2-2.69,12.45.76,12.64.91C359.12,399.22,358.38,398.79,359,400Zm-1.19-3.83c-1.82-.17-3.83-.9-5.9-.9.48-.63.82-.63,1.68-1,2.35-.9,3.43-1.78,3.88-.76A14.36,14.36,0,0,1,357.79,396.21Zm107.12,95.33c0,1.39.23,1.08-.51,1.82-1.79,1.78-2.86,1.78-5.1,2.29,0,1.53.28,1.17-.57,1.79,0-2.5-.4-4.88-.59-7.12l-.29-7.37c0-4.56-.91-9.55-.91-14.74,4.34-2.89,9-8,13.19-11.59l4.3-4c1.05-1.08,1.88-1.56,2.95-2.66l26-25c4.09-4.11,9.59-9.3,13-13.33,2.44-2.94,5.41-5.38,7.88-8.36l18.37-20.86a25,25,0,0,1,2.58-3,12.19,12.19,0,0,1,.56,2.38c.23,1.19.43,1.44.71,2.52.48,1.76.83,3.23,1.22,5,.91,4.19.57,3.91-1.7,9.18-.65,1.53-1.13,2.84-1.87,4.31-.4.77-.65,1.3-1,2l-5.47,10.15a220,220,0,0,1-22.34,30.5l-22.62,24a14.23,14.23,0,0,0-2.44,2l-1,1.1a.32.32,0,0,1-.14.14,3.82,3.82,0,0,1-.49.43l-2,1.53-.2.09-.71.45c-1.27,1.42-.62,1.22-2.86,3-1.13.94-2.12,1.93-3.34,2.89l-10.24,8.34C467.72,490.69,467.55,491.32,464.91,491.54ZM362.81,359.31l2.94.59C364.45,359.9,363.86,360,362.81,359.31Zm-13.87-3.23h20.67a2,2,0,0,1-1.79,1.47C364.73,357.55,351.47,358.26,348.94,356.08ZM337.72,354v-.6c2.66-.23,5.67-1.79,7.4-1.79l14.45.32c3.63.17,10.29,1.16,13.87,1.16-.88,1.33-1.68.91-3.83.91l-9.47,0c-1.87,0-2.44.34-4.39.31H351c-3.23,0-4.53.42-9.15.31C340,354.54,339.59,354,337.72,354ZM351,349.27h7.09c6.63,0,12.47.88,18.88.88-.57,2.13-3.52.94-5.9.88s-4.93-.37-7.11-.57c-1.22-.08-2.58.06-3.83,0l-11.2-.31A3,3,0,0,1,351,349.27Zm29.51-2.07c-.42,1.53-.88.74-1.78,2.07-1.25-.9.2-1.13-5-1.16-1.53,0-1.62-.26-3-.31-1-.06-2.18,0-3.26,0-1.39,0-1.33-.23-2.63-.29-1-.05-2.22,0-3.24,0h-6.52c1.93-2.6,14.35-.87,18.91-.9C379.19,346.58,377.29,347,380.52,347.2Zm3.55-2.66-1.42,1.56c-3.4-1-.11-.51-4.74-1a137.67,137.67,0,0,0-17.17-.57l1.9-1.05a6.17,6.17,0,0,1,2.92.08,52.23,52.23,0,0,0,6.4.09l6.21.28C380.07,344,382.28,344.51,384.07,344.54Zm-18-3c.85-.74.59-.77,2-.88a18.3,18.3,0,0,1,2.69-.06l11.79.06c2.27,0,3.46.31,5.9.31-2,3-2.92.88-10,.85C374.23,341.87,370.54,341.59,366.07,341.59ZM384.66,339l-14.77.29a5.9,5.9,0,0,1,2-1.28c1.08-.37,9.21-.48,11-.48,3.62,0,6.15.28,9.75.28L391.49,339C390.22,339.63,387.13,339,384.66,339Zm-10-2.66c1.36-1.87,4.39-1,7.37-1.19l10.91-.28c1.64,0,1.76.28,3.26.28-.6.88-.37.85-1.76.91h-8.59C381.71,336,378.68,336.29,374.63,336.29Zm3.51-2.67.68.4C378.28,334,378.2,334.59,378.14,333.62Zm19.79-.59c.34-.34,1.67.51.37.14C398.27,333.14,397.42,333.57,397.93,333Zm175.29-2,2,.62c-.59.8,0,.68-.9.31A6.24,6.24,0,0,1,573.22,331Zm-190.94.28c1.05-1.42,2.1-1.19,4.45-1.16,2.07,0,3-.34,5.3-.31h5.61c2.24,0,3.29-.29,5.59-.29a1.65,1.65,0,0,1-1.22,1.25c-.28.06-1.73-.08-2.61-.08l-11.51.28C385.65,331,384.6,331.27,382.28,331.27Zm4.42-2.95c.8-1.19,2.53-1.92,3.55-2.66,2.29-1.7,2.06-.6,5.69-1.11,2.53-.34,11.14.23,13.78.23-.23.68-.17.43-.62.85a8.8,8.8,0,0,1-1,.77c-3.28,2.41-3.94,1-11.67,1.61-1,.09-2.19-.05-3.24,0Zm176.18-4.73a19.7,19.7,0,0,1,3.68,1.08c1.45.39,2.24.68,3.66,1.05l7.42,2.29a4.17,4.17,0,0,0-.87,1.79c-1-.26-2.5-.88-3.75-1.31-1.53-.51-6.32-1.92-7.37-2.66Zm-159.06-.88c-2,0-3.14.23-4.7.29-.88.05-1.82,0-2.67,0-1.33.08-1.07.28-2.35.31a5.84,5.84,0,0,1,3.6-2l16.75-.05-1.58,1.67C411.68,323.65,407.25,322.71,403.82,322.71Zm-4.13-2.95a9.75,9.75,0,0,1,3.54-2.35h13.58c1.5,0,1.33.26,2.66.28v.6c-1.9.51-.42,1.22-4.14,1.19l-10.63,0C402.55,319.45,401.64,319.76,399.69,319.76Zm154.94-2.94,21.94,7.25c2,.71,2.49.65,2.83,1.59-1.53.74-11.39-2.81-13.15-3.35-4.79-1.44-6.92-1.07-9.33-3.37C555.9,318,555.42,318,554.63,316.82Zm-148.74-.88a14.38,14.38,0,0,1,3.29-2.33c1.36-.68,14.37-.34,16.5-.34-.26.68-.2.43-.65.85-3.52,3.35-5.13,1.79-7.91,1.79ZM549,312.08c.57-.65.34-.14,2,.34l14.37,4.23c4.76,1.36,12,3.94,16,4.87a3.74,3.74,0,0,1-.59,1.48L573,320.25c-.79-.29-1.33-.51-1.92-.71l-6-2c-2.78-.93-5.42-1.67-8.11-2.49C555.62,314.66,549.61,313.22,549,312.08Zm-136-.59a8.3,8.3,0,0,1,3.12-1.9l14.6.14c-.2.65,0,.31-.43.76l-.68.51C428,312,415.19,311.49,413,311.49Zm129.85-5.9c.94.23,1.48.48,2.47.77s1.79.42,2.58.68c6.8,2.09,18.74,5.78,25.37,8.24,1.87.71,8.42,3.29,10.29,3.29-.62,1.19-.54,1.14-2.1.68-2.83-.88-4.82-1.78-8.05-2.6-1.27-.34-1.3-.49-2.44-.83s-1.84-.54-2.75-.79-1.84-.6-2.72-.82l-13.63-3.77C546.32,309.05,545.47,309.53,542.83,305.59Zm-123.64,2.35c.82-2.26,5.84-2.29,7.65-2.35,3.37-.11,7,0,10.35,0a13.26,13.26,0,0,1-2.89,2.13C433.08,308.25,421,307.94,419.19,307.94Zm5.58-3.82c.46-.4.14-.12.71-.49,2.64-1.75,2.72-1.89,7.54-1.89,3.6,0,6.52-.29,10.35-.29-2,2.81-5.76,2-8.31,2.33Zm111.86-5.62,12.53,3.72c3.71,1.39,11,3.37,15.33,5l21.4,7.52a27.13,27.13,0,0,0-1.47,2.66c-2.89-2-2.07-1.27-5.64-2.64-12.33-4.62-22.34-7.25-34.9-10.82-2.83-.8-3.26-.2-5.35-2.9A13.21,13.21,0,0,1,536.63,298.5ZM430.7,300.57c1.1-3.09,7.22-2.29,8.41-2.49l10.46-.46c-2.86,2.47-3.48,1.56-6.17,1.79C440.14,299.67,433,300,430.7,300.57Zm5.58-4.14c1.08-1.58,1.19-1.27,3.49-1.53l14.51-.51-1.16,1.19c-.77.32-.91.06-2.07,0Zm96.52-2.94c5.05,1.19,27.44,8.16,31.27,9.75l6.71,2.41c1.08.37,2.05.85,3.43,1.3l12.62,4.82c.59.43.25-.14.57.62-1.08.49-5.31-1.56-6.55-2-2.3-.85-4.45-1.61-6.72-2.44l-21-6.74c-2.44-.63-4.93-1.33-7.34-2.1l-10.88-3A4.65,4.65,0,0,1,532.8,293.49Zm-92.38-.29a4,4,0,0,1,3.51-2.09l11.26,0c.88,0,1.75,0,2.63,0l2.07.26c-1.87.51.12.93-4.42.9C447.87,292.27,444.39,293.2,440.42,293.2Zm4.42-3.54c.43-1.53,2-2.1,3.52-2.1l10.94.31h5.61c-.23.68,0,.26-.48.71a2.93,2.93,0,0,1-3.06.82C458.67,289.18,446,289.12,444.84,289.66Zm83.82-2.07,19.87,5.22a17.85,17.85,0,0,1,1.79.59c5.95,1.93,13.07,3.77,19.13,5.93l20.89,7.14c-.14,1.44-.9,2.18-1.47,3.26L581.61,307c-2.55-1-4.93-1.95-7.48-2.86l-15.42-5.25c-5.25-1.75-10.57-3.14-15.93-4.73l-12-3.32C529.71,290.11,529.06,288.36,528.66,287.59Zm36.88-2.07,2.41.77a2.5,2.5,0,0,1-1.28-.12A2.17,2.17,0,0,1,565.54,285.52Zm-116.84.31.93-1.13a6.72,6.72,0,0,1,2,.2c.8.08,1.5,0,2.27.08a39.6,39.6,0,0,0,4.79.26v.28C455.3,285.52,452.41,285.83,448.7,285.83Zm76.7-3a22.05,22.05,0,0,1,4.4.93l13.32,3.52c1.42.34,2.63.79,4.14,1.16l18.88,5.9c.73.28,1.38.42,2.23.7,1.62.51,2.56.91,4.2,1.45l8,2.86c1.33.54,2.72,1,4.08,1.53s2.64,1,4.09,1.56c1,.34,3.91,1,3.06,1.9-.48.54-.17.31-1.7-.31-14.26-5.78-45.87-14.88-61.86-18.45C526.65,285.27,526.88,285.63,525.4,282.86Zm-72.23-1.7a14,14,0,0,0,1.82.7l1.95,1h-5.3ZM315.58,345.45c0-2,1.13-2.58,2.55-3.69l6.38-5.39c1.11-1,2.15-1.67,3.26-2.66,2.47-2.21,10.83-8.28,13.58-10.32,7.37-5.53,21.65-14.06,29.45-18.37,5.81-3.23,10.26-5.21,15.9-8l16.64-7.23c9.5-3.17,27.84-11.34,36.48-11.34,6.49,0,6.47.91,11.51,2.07l-7.4,5.9a19.27,19.27,0,0,1-3.54,3.23c-1.28.71-.68.09-1.53,1.14-2.86,3.45-33.65,21.48-39.23,25.11l-12.33,8c-5.39,3.8-10.83,7-16.22,10.6a194.76,194.76,0,0,1-19.39,10.75l-7,3c-3.57,1.25-5.78,2.32-10,3.54-2.52.71-2.84.77-5.25.17l-10.85-2.72C317.62,348.79,315.58,346.83,315.58,345.45Zm206.87-68.18c2.78,0,7.12,1.28,9.73,1.79l62.59,19.76a11.07,11.07,0,0,1-1.2,2.63c-1.27-.08-8.75-3.2-10.74-4l-36-11.53-16.72-4.2c-1.82-.39-5.64-.65-6.69-2.18A4,4,0,0,1,522.45,277.27Zm-2.07-5c5.36.12,24.86,6.35,31.27,8.28,1.05.34,1.76.6,2.86,1s1.7.45,2.67.87c1.67.71,7,2.22,8.08,3.15a29.33,29.33,0,0,1-5.5-1.59l-35.29-8.39C519.87,274.92,521.89,275.37,520.38,272.25Zm-1.16-7.08,10.6,2.63c3.49,1,6.75,2.05,10.24,3.07,4.05,1.21,17.91,5.81,22.22,7.59L598,292.89c-.2.94-.37.88-.6,1.79-1.67,0-7.45-2.92-9.55-3.72-3.43-1.3-6.35-2.52-9.75-3.82l-29.94-10.21c-3.37-1.08-7-1.95-10.63-2.95s-7.2-1.61-11-2.52l-5.64-1.13C519.11,269.76,519.22,266.9,519.22,265.17Zm53.41,69.93a5.62,5.62,0,0,1-1.42,2.72,470.53,470.53,0,0,1-31.44,41.47l-34.64,38.24-12.7,12.39c-1.44,1.33-2.72,2.72-4.13,4.14l-2.07,2.07-4.28,4a29.13,29.13,0,0,1-2.36,2.07c-3.65,3.24-6.94,6.81-10.71,9.95-7.37,6.18-15.68,18.17-27.87,18.17-7.71,0-19.36-4.59-26-8.19l-4.59-2.52c-7.14-4.68-15.39-10.18-20.95-16.81-2.61-3.15-5.53-6.12-8.05-9.38-1-1.25-1.95-2.47-3-3.75-.6-.76-.91-1.3-1.48-2.06s-1-1.25-1.5-2.05a118.71,118.71,0,0,1-9.32-18.11c-3.38-8.53-8-26.16-4.91-34.41a26.66,26.66,0,0,1,2.24-4.54,25,25,0,0,1,3.15-3.94l.28-.31a5.62,5.62,0,0,1,.4-.48l1.36-1.31a5.48,5.48,0,0,1,.48-.39l4.76-4.11c1.31-1.05,2.5-1.87,3.86-2.92l4.08-3c2.55-2.09,5-3.94,7.54-6,9.92-8.11,25.12-19.54,35.4-26.56l37.56-24.69c4.85-2.92,10.12-6.41,15.23-9,1-.48,1.36-.77,2.26-1.28,9.05-4.93,18-10,27.36-14.25l9.44-4.43c-.09,1-.51,2.41-.54,3.29a19.31,19.31,0,0,0,1.27,6.29c4.06,11.88,14.12,23.79,22.37,33.14l7.65,8a24.68,24.68,0,0,0,2.21,1.92c2.92,2.44,5.62,5,8.65,7.29C561,327.76,569.54,334.28,572.63,335.1Zm-51.06-71.72c2.3-.54,8.23,1.25,10.72,1.7,8.19,1.48,20,5.39,28,7.74.88.29,1.56.6,2.38.85l35.21,13.5a17.14,17.14,0,0,0,2.55,1c-.31,3.71-3.26,1.33-5.84.19-7.46-3.23-15.76-6.2-23.22-9.21-3.2-1.3-6.21-2.35-9.49-3.49l-9.67-3.34c-1.73-.57-3.4-1-5-1.53l-15.14-4.34c-2.24-.56-8.53-2.49-10.49-2.49Zm3.55-1.47c6.26-1.45-.71-3.18,14.17.31,15.37,3.6,22.85,6.8,36.91,11.45l26.22,10.38c-.2.9-.37.85-.57,1.78-1.36,0-23.61-8.84-27.35-10.15-3.26-1.16-6.1-2.15-9.44-3.26a296.32,296.32,0,0,0-34.75-9.21c-1.2-.22-1.54-.31-2.78-.45S525.69,262.67,525.12,261.91Zm11.51-4.71c1.67,0,7.14,1.65,9,2.19,12,3.37,18.65,5.95,30,10.14l26.62,10.58c1.3.54,1.36.14,1.67,1.27-1.16.57-7-2.12-8.47-2.72-3-1.19-5.53-2.15-8.54-3.29-7-2.69-18.82-6.83-26.44-8.95l-9.19-2.64c-6.29-1.81-12.58-3-19.08-4.51.51-.71,1.25-.82,2.1-1.16A13.64,13.64,0,0,1,536.63,257.2Zm76.14-.59c-.17-.88.62.05.28.05C612.45,256.61,612.88,257.23,612.77,256.61Zm-.88-.6c.31-.31,1.1.48.31.14C612.2,256.15,611.38,256.49,611.89,256Zm-5.62,19.48c-.28,1.22-.79,1.78-.87,2.94-1.88,0-9.5-3.82-11.57-4.67-1.39-.57-2.55-1.14-4-1.62-.93-.34-1.19-.45-1.9-.76l-6-2.3c-1.42-.54-2.69-1-4.05-1.56-5.67-2.27-33.37-10.77-38.64-11.22l3.88-1.68c.86-.11,12.56,2.81,13.58,3.09,7.54,2.1,18.31,5.05,25.71,8,2.81,1.1,5.3,2,8.08,3.12Zm-32.76-31.27c4.28-.11-.23-1.5,7.73.51l28,10.4c-.76-.31-1.64-.59-2.41-.85a275.74,275.74,0,0,0-31-9.12C574.61,244.87,574.07,245,573.51,244.22Zm36.9,21.23c-.54,1.11-1,2.67-1.47,3.86-2.3,5.16.28,4.67-8.9.9-2.47-1-4.62-1.84-7.17-2.86-4.79-1.93-13.61-5-18.6-6.49-11.17-3.2-16.95-4.59-28.2-7.2l.36-.23c4.77-2.46,5.28-1.39,11.37.29,2.3.62,4.62,1.39,7.06,2.09,4.9,1.48,9.1,2.87,13.86,4.45,1.31.43,2,.74,3.23,1.17s2.27.71,3.55,1.19l13.09,5.21c1.14.48,5.81,2.64,6.81,2.64.42,0,.87-.6.87-1.47s-1.58-1.39-2.35-1.76c-1-.51-1.93-.88-3.06-1.39-4.76-2.1-17.18-7.17-21.86-8.53-1.44-.43-1.92-.68-3.37-1.08l-6.77-2.07c-2.58-.71-12-3.43-14.23-3.46a5.08,5.08,0,0,1,3.06-1.36c2.35-.34,27.95,7.63,32.23,8.85Zm-41.92-19.76c1.19-.11.71-.31,1.47-.31l11.11,2.78c8.51,2.41,18.17,5.39,26.25,8.56,1,.4,1.65.54,2.61.94a5.9,5.9,0,0,0,2.84.71,16.64,16.64,0,0,0-.74,2.23,7.92,7.92,0,0,0-.74,2.5c-1.67,0-7.11-2.35-9.15-3l-9.1-3c-10.58-3.35-21.09-6.3-31.92-8.82.31-.2-.09,0,.57-.31,4.25-1.9,5.86-.6,12.24.79l12.81,3.4c2,.63,4,1.25,6.07,1.93L611,260.75c.59,0,.59-.74.59-1.19,0-1.28-8.07-3.83-9.55-4.31l-10.68-3.49c-4.6-1.5-12-3.4-16.81-4.42-1.11-.26-1.93-.31-3-.54a12,12,0,0,0-3-.54Zm44.56-2.07c1.22.29,1.78.8,3,.88,0,3-1.25,5-1.48,7.69-1-1.17-1.56-1.25-3.14-1.88-6.89-2.69-15.54-5.55-22.6-7.51l-3.57-1.16a2.05,2.05,0,0,1-.2-.08c3.63-.85,4.91-1.39,7.6-.54,6.46,2.09,11,4,17.07,6.55,1,.42,4.25,2.57,4.25.48,0-.94-1.11-1.17-1.79-1.45-1-.37-1.44-.59-2.49-1l-4.82-2c-1.82-.74-8.45-3.35-10.38-3.49.49-.31-.34,0,.63-.31,1.5-.51,2.52.23,4.65.94,1.78.59,3.37,1.21,5.24,1.84l7.57,3.06c2.89,1.33,3.09-.28,1.05-1.64C613.08,243.65,613.47,244,613.05,243.62Zm-.6-.31.12.09S612.43,243.34,612.45,243.31Zm-.88-.28c.32-.31,1.14.45.34.14C611.91,243.17,611.09,243.51,611.57,243Zm-32.17-.31c1.22-.09.68-.29,1.79-.29a21.24,21.24,0,0,1,4.25,1c1.7.43,2.75.88,4.31,1.31,6.8,1.87,13.49,4.7,20.1,7.06,1.55.56,2.26,1.21,4.39,1.21a4.47,4.47,0,0,1-.6,1.48c-5.27-2.78-23.35-8.62-29.87-10.26C582.6,244,580,243.54,579.4,242.72Zm24.8-4.11c2.95,0,8.48,1.93,11.34,3.09,1,.42.74-.17,1.05,1a28.52,28.52,0,0,1-3.09-1l-9.13-3A.62.62,0,0,0,604.2,238.61Zm7.69-.31h5.3c0,2.55-.2,1.87-3.89.65ZM471.4,284.64c-2.52-1.7-7.2-3.51-10.06-4.67-14.2-5.79-19.87-7.86-34.47-3-.79.28-1.56.42-2.47.76-8.3,3.29-17.12,5.67-25.28,9.25l-10.94,4.7c-.32.17-.63.28-1,.48-3.94,2-8,3.66-11.85,5.84-4.14,2.33-8.22,4.17-12.31,6.61-7.79,4.62-15.36,9.49-22.84,14.59-.8.54-1.14.86-1.9,1.37s-1.22.79-1.93,1.33l-14.12,11a63.88,63.88,0,0,0-6.83,5.84c-2,2.07-5.38,3.88-5.38,7.59,0,7.4,16.44,9.22,23.47,10.75l28.17,6.38c-.79,2.89-7,5.35-5.35,20.4l.34,5.28c-2,.14-4.14,1.24-6,1.95l-9,3.38c-9,2.92-5.18,9.32-5,15.62-4.62-2.44-5.79-4.34-13.21-5.42-1.87-.25-8.65-1.93-8.65,1.87,0,2.33,6.32,3.74,7.09,5.9-6.66,0-12.16.88-18.26,1.53-4.22.45-8.5,1.36-12.61,2.12-1.47.29-3.06.32-3.06,2,0,2,3.65,2.69,5.1,3.43,4.08,2.07,8.11,3.46,12.22,5.53,1.81.91,3.54,1.36,5.3,2.35a2.48,2.48,0,0,1,.68.48c-3.43.31-13.66,3.63-16.84,4.71a187.52,187.52,0,0,0-36.88,17.12c-1.93,1.16-5.13,2.89-6.46,4.45.68,3,3.23,2.07,10,2.07,10.41,0,12.48-.11,22.91,1.27,3.31.43,7,1.59,10.43,1.68v.59a4,4,0,0,0-1.64.74c-.77.4-1,.54-1.71.94l-6.57,3.45A214.36,214.36,0,0,0,243.38,494l-19.67,19.28a1,1,0,0,1-.14.17l-1.9,1.92c-1,1-1.42,1.73-2.35,2.67l-7.15,7.91a15.33,15.33,0,0,1-1.1,1.24c-1.36,1.51-5.84,5.9-5.84,7.46,0,.94,1.22,1.76,2.07,1.76.37,0,4.87-2.44,5.7-2.87l12-5.15c2-.74,4.08-1.54,6.35-2.19s4.5-1.22,6.72-1.87c5.81-1.67,16.24-3.57,22.39-3.57a49,49,0,0,1,12.1,1.19c-.25.94-3.82,4-4.82,4.93-.85.88-1.5,1.51-2.35,2.38l-1.3,1.36c-3.4,4-7,7.66-10.29,11.82a160.74,160.74,0,0,0-12.36,17.15c-2.47,4.14-5.16,8.11-7.34,12.42-.63,1.19-1.08,2.27-1.7,3.35a8.13,8.13,0,0,0-.83,1.53l-4,8.41a127.87,127.87,0,0,0-6.86,18c-.46,1.5-.74,2.24-1.22,3.8l-3.15,11.65c-.65,2.83,1.76,4.19,4.11,1.1L231,606.71c1.41-1.7,3.06-3.2,4.5-4.9l4.28-4.59a.46.46,0,0,0,.14-.14,1.07,1.07,0,0,0,.15-.17c2.18-2.36,6.88-7.49,9.32-9.56,3.43-2.86,6.61-6,10.12-8.75,2.64-2,5.08-4.46,7.6-6.58.51-.45.71-.74,1.22-1.14l16.95-13.74c2.07-1.53,9.58-7,11.73-7.17.09,4.73,1.17,9.83,1.17,14.76,0,6.72.17,14.12-.54,20.7l-.63,7c.2,1.81-.19-.68.12.48a.52.52,0,0,0,.08.23c.51,1.64,2.24,1.47,3.29.45a13.44,13.44,0,0,0,1.19-1.47l9.24-10.52c.91-1,1.7-2,2.53-3.09l11.48-16.24a82.53,82.53,0,0,0,8-17.15c.34-1.08.26-1.39,1-1.93a21,21,0,0,0,.63,4.39,45.88,45.88,0,0,1,.85,9.16c0,2,.37,3.54.28,5-.17,3.06,0,6.06-.34,9.12a91.19,91.19,0,0,0-.82,9.47c2.86,1.93,3.46.09,7.37-5l5.07-6.41c.91-1.11,1.53-2,2.44-3.2l14.09-20.44a58.77,58.77,0,0,0,5.5-11.88c.54-1.64.85-2.78,1.36-4.56a18.29,18.29,0,0,0,1.05-4.85c.88.65.79,3,.88,5.3.31,5.92.62,5.3.59,12.42,0,2.15-.4,4.7,1.79,4.7,2.41,0,9.41-9.44,11.45-12.44a77,77,0,0,0,7.2-12.56c1.56-3.6,5.16-11.68,5.24-15.14,1.05.29.94.68,1.53,1.73,1.17,2,4.62,8.73,6.41,3.57a30.2,30.2,0,0,0,1-16.27,20.69,20.69,0,0,1-.65-5.84c4.17.34,7.6,3.46,11.48-1.81a118.84,118.84,0,0,0,7.51-13.15c2-4.11,2.16-2,8.17-1,15.47,2.55,15.42-1.78,18.88-2.07.79,9.44,1.3,19.48,2.07,28.92.39,5-1,23.61,7.37,23.61,4.13,0,7.25-3.69,10.14-6.12,2.1-1.76,4.23-3.35,6.18-5.33l5.9-5.59c2.78-2.29,5.27-5,7.82-7.54.68-.68,1.28-1.22,1.9-1.92l3.72-4c.82-.85,1-1.25,1.75-2.07,1.22-1.36,2.44-2.61,3.69-4l10.43-12.58c1.19-1.54,2.18-2.84,3.32-4.34l9.44-13.3c1.07-1.61,2-3,3.06-4.62s1.95-3.09,2.94-4.7c3.38-5.61,6.89-11.2,9.78-17.1s6.55-11.53,9-17.8a29.8,29.8,0,0,0,2.38-12.38,64,64,0,0,0-2.18-13.19c-.57-2.18-1.14-4.11-1.62-6.06-1.79-7.29-2.61-4.71,1.39-9.72,7.06-8.85,13.69-18,20.32-27.19l8.17-12.22c1-1.5,1.7-2.55,2.66-4.11s1.7-2.6,2.61-4.16l17.15-30.11,5.47-11.34c.37-.85.68-1.53,1.11-2.43a146.89,146.89,0,0,0,11.56-36c.37-1.95.6-4,.88-5.92.82-5.42-2.1-4.05-10-4.05A109.87,109.87,0,0,0,595,235.57c-1.7.34-3.48.63-5,.88-3.41.57-6.52,1.22-9.78,2-6.47,1.64-12.31,3.17-18.66,5.24-3.06,1-5.81,1.87-8.78,3l-12.93,4.77c-1.61.65-2.89,1-4.45,1.75l-4.19,1.7c-1.53.6-2.73,1-4.23,1.7l-30.36,14.21c-7.34,3.31-14.2,7.73-21.31,11.42Z" fill="#fff" fill-rule="evenodd"/><path d="M485.57,326.54c8.51,0,17.86,3.91,22.6,10.77l2.77,5.19a8.91,8.91,0,0,1,.6,2.35c-2.75,0-5.92-.6-9.75-.6-2.89,0-11.65.12-13.27.88.71,1.08,1.42,1,4.23,1.42,8.76,1.19,10.06,1.53,19.67,1.53l.31,6.21c-4.25,1-10.4-1.73-15.36-.6.17,1.88,1.9,1.34,5.92,2.36,9.61,2.52,9.24.68,8.31,3.29a29,29,0,0,1-1.14,3c-8.53,17.57-32.06,21.85-43.57,9.13-3.85-4.26-7.62-9.27-8.64-15.25-.23-1.34.08-1.79-.43-2.84l9.5,1.42c7.14.79,11.51.65,18.54.65v-1.19l-13.78-2.44c-2.1-.37-4.42-.79-6.77-1.19-2.13-.34-5.05-.59-7.17-1.1l.73-4c.46-1.31-.31-.63.74-1l.42-.17c2.78-.63,6.67.42,9-.12-.57-2.15-6.52-2.66-8.56-2.66.85-3.66,6.4-8.33,9.66-10.37C473.7,329,479.93,326.54,485.57,326.54Zm-30.69,25.4a28.36,28.36,0,0,0,2.86,12.19c.4.85.71,1.58,1.16,2.35a11.14,11.14,0,0,0,.74,1,11.77,11.77,0,0,1,.68,1.1c4.05,6.72,12.41,13.41,22,13.41,5.93,0,6.75,0,12.28-1.59,7.2-2.09,14.6-7.85,18-14.74l2-5.1c1.33-4.48,1.08-6.49,1.08-11.05,0-10.46-8-20.44-17.69-23.93a34,34,0,0,0-18.45-1.27C466.47,326.77,454.88,337.68,454.88,351.94Z" fill="#fff" fill-rule="evenodd"/></svg>