<?xml version="1.0" encoding="UTF-8"?>
<!DOCTYPE svg PUBLIC "-//W3C//DTD SVG 1.1//EN" "http://www.w3.org/Graphics/SVG/1.1/DTD/svg11.dtd">
<!-- Creator: CorelDRAW X8 -->
<svg xmlns="http://www.w3.org/2000/svg" xml:space="preserve" width="304.8mm" height="304.8mm" version="1.1" style="shape-rendering:geometricPrecision; text-rendering:geometricPrecision; image-rendering:optimizeQuality; fill-rule:evenodd; clip-rule:evenodd"
viewBox="0 0 30480 30480"
 xmlns:xlink="http://www.w3.org/1999/xlink">
 <defs>
  <style type="text/css">
   <![CDATA[
    .fil0 {fill:white}
   ]]>
  </style>
 </defs>
 <g id="Layer_x0020_1">
  <metadata id="CorelCorpID_0Corel-Layer"/>
  <g id="_2611983721888">
   <path class="fil0" d="M7612 18043l123 -129c211,-250 463,-514 698,-739l61 -54c2,-1 4,-3 6,-5l486 -419c31,-25 65,-50 95,-71 34,-24 62,-45 98,-69 72,-48 133,-97 205,-139l316 -194c214,-129 438,-244 660,-360l227 -116c51,-25 87,-34 87,-101 0,-51 -91,-54 -141,-67l-349 -67c-331,-57 -629,-64 -999,-64 43,-58 416,-239 500,-281l177 -83c232,-116 508,-212 756,-285l621 -161c25,-18 35,-50 14,-80 -30,-44 -217,-108 -266,-130 -58,-26 -123,-59 -179,-82l-266 -120c-37,-17 -64,-18 -86,-48 102,0 201,-31 301,-42 211,-23 419,-53 635,-52 102,0 282,29 282,-73 0,-65 -161,-121 -198,-177 90,2 411,138 460,217 8,14 41,158 48,181 48,173 112,333 182,495 20,47 60,118 70,159 -121,0 -192,-31 -313,-31 -103,0 -603,6 -603,114 0,56 40,73 90,97 203,99 484,256 662,390 32,23 82,49 101,75l-514 142c-216,73 -438,146 -649,236 -47,20 -128,41 -128,101 0,99 123,73 188,73 71,0 169,13 237,23l321 65c40,9 72,24 108,27l0 21c-59,15 -355,241 -402,275 -180,129 -348,276 -517,419l-406 375c-37,38 -153,134 -153,190 0,30 33,73 62,73 49,0 331,-144 403,-180l402 -181c91,-39 181,-95 278,-118 -35,150 -105,330 -161,475 -21,55 -63,128 -65,183 -1,28 30,71 59,71 108,0 261,-156 322,-230l236 -316c42,-55 75,-100 116,-154l244 -319c24,-33 94,-136 134,-147l59 565c9,64 14,142 14,205 68,47 110,67 217,-63 60,-72 95,-150 122,-243 40,-136 67,-284 125,-416 17,-38 48,-98 56,-131 33,22 37,45 54,81 9,18 9,17 18,34 24,42 43,77 67,121 17,30 21,31 38,55 42,60 78,136 167,136 124,0 184,-191 229,-281l89 -171c17,-38 23,-46 40,-85 11,-24 10,-21 21,-42 14,-26 12,-24 27,-46 42,10 245,125 305,153 53,24 108,46 162,67l168 61c0,257 88,310 10,646 -1,-2 -4,-8 -4,-6l-17 -25c-27,-41 -126,-251 -177,-251 -117,0 -89,198 -159,383 -14,37 -19,64 -32,103 -12,37 -24,66 -36,99 -92,254 -241,487 -402,702 -22,29 -35,50 -60,75 -28,28 -43,57 -71,75 0,-279 -21,-573 -81,-824 -34,-145 -10,-241 -158,-207 -27,117 -35,234 -56,350 -25,130 -45,222 -81,336 -151,491 -463,880 -766,1285l-136 176c-1,0 -22,30 -22,30 -18,18 -2,12 -32,20 39,-467 6,-862 -100,-1295 -10,-39 -12,-79 -36,-100 -27,-24 -64,-25 -91,2 -30,32 -43,157 -57,214 -32,138 -86,271 -138,403 -62,157 -147,299 -238,439 -143,217 -299,417 -463,620l-61 74c-42,47 -85,107 -138,143l11 -927c-1,-58 -10,-66 -11,-124 -2,-115 -14,-242 -40,-356 -31,-136 -202,2 -278,48 -288,173 -390,271 -639,455l-749 656c-115,92 -218,199 -330,295l-27 25c-95,88 -227,175 -285,287l-442 505c76,-328 250,-761 395,-1051 82,-163 161,-321 253,-476 48,-79 88,-149 139,-226 51,-78 91,-144 145,-219l390 -506c51,-66 122,-126 172,-192 67,-85 446,-436 460,-457 14,-24 15,-39 5,-60 -44,-101 -438,-134 -533,-134 -243,0 -461,47 -693,88l-213 47c-133,34 -273,70 -401,119 -88,34 -290,97 -369,152l-12 -9zm8788 -335c-28,0 -29,-5 -52,-10l0 -21c42,0 110,-12 146,-21 -18,27 -51,52 -94,52zm-104 -62c-13,-25 -24,-43 -31,-73 53,0 88,-11 156,-10 59,0 118,0 177,0 -23,34 -12,24 -59,34l-243 49zm-52 -187c46,-23 406,-21 499,-21 -32,49 -29,41 -103,41 -61,1 -79,12 -146,11 -64,-1 -88,5 -136,10 -123,11 -107,-9 -114,-41zm10 -177l0 52c117,27 469,-18 625,-21 -42,62 -37,34 -122,44 -127,16 -380,0 -503,29 -27,-57 -21,-87 -21,-157l760 -20c-35,52 -36,22 -159,38 -67,10 -137,0 -205,3 -45,3 -38,8 -83,11 -94,5 -200,-1 -292,21zm-21 -125l0 -11c56,0 105,-10 177,-10 66,0 132,0 198,0l0 10c-62,0 -125,0 -187,0 -78,0 -110,11 -188,11zm604 -32c12,-12 60,18 13,5 -1,-1 -31,13 -13,-5zm-52 0l3 3c0,0 -4,-2 -3,-3zm240 -10l62 0 0 10 -62 0 0 -10zm-792 -52l94 0 0 10 -94 0 0 -10zm125 -73c22,-32 49,-48 91,-46l305 -6c183,0 328,10 510,10l0 11c-165,0 -302,11 -458,10l-448 21zm950 -81c-9,-26 -5,-34 -34,-34l-697 0c-36,0 -40,8 -73,11 12,-18 104,-94 125,-94l302 0c78,0 398,17 458,31l-81 86zm143 -148c-46,-4 -120,-17 -167,-20 -30,-3 -61,1 -91,-2 -153,-17 -319,-9 -481,-9 60,-89 130,-84 219,-84 66,0 132,1 198,0 79,0 113,11 187,11 32,0 177,-4 197,2 54,18 -16,33 -62,102zm136 -167l-555 -3c-46,6 -95,3 -143,3 20,-56 76,-67 131,-58l608 17c-6,23 -10,41 -41,41zm-3155 -52c26,-34 -17,-10 108,-28 51,-7 77,-13 132,-13 -79,69 -159,41 -240,41zm3238 -62l-479 0c-69,0 -90,-11 -156,-11 42,-62 85,-83 187,-83l521 0c70,0 -28,94 -73,94zm-3300 41c-43,-3 -176,-42 -198,-72 102,0 204,-10 293,-19 100,-11 189,-26 280,-33 -21,38 0,18 -30,33 -14,7 -28,8 -53,8 -58,2 -79,8 -125,11 -81,4 -216,-29 -167,72zm2821 -187l106 -102c41,-24 141,-14 190,-6l402 14c-19,79 -59,84 -114,84l-584 10zm-2998 21c-91,0 -114,10 -192,17 -35,3 -119,-36 -131,-69 83,0 167,0 250,0 242,0 590,-52 708,-52 -52,98 -34,81 -281,93l-261 19c-32,1 -46,-8 -93,-8zm-666 -250c236,0 472,-1 708,0l510 -20c68,-1 101,-11 177,-11 -6,23 -15,45 -27,66 -34,59 -78,44 -161,48 -45,3 -43,10 -93,11l-823 10c-114,0 -146,23 -291,-104zm3852 52c74,-112 165,-84 291,-83 76,0 109,-11 177,-11 66,0 132,0 198,0 -108,161 -72,104 -469,104 -79,1 -133,-10 -197,-10zm-2457 -156c42,0 27,1 41,21l-135 0c2,-2 6,-6 7,-4 1,2 5,-3 7,-3l80 -14zm-1572 -31l196 12c63,7 121,8 199,8l-364 11c-46,-11 -15,0 -31,-31zm4185 41c56,-84 99,-73 270,-73 73,1 104,-10 167,-10 58,-1 118,0 177,0 -7,11 -26,37 -38,45 -39,26 -337,24 -410,28 -56,3 -95,10 -166,10zm-4373 -187c55,0 149,5 206,13 112,15 206,13 304,18 137,7 382,32 521,31 86,0 131,11 208,11 161,-1 272,-23 367,39 19,12 8,4 18,13 -83,0 -135,24 -294,3l-591 -34c-59,0 -140,-12 -190,-18 -116,-15 -247,-13 -385,-32 -89,-12 -121,20 -164,-44zm5049 31c-91,0 -500,12 -541,31 22,-80 125,-69 250,-72 55,-2 79,-11 145,-11 56,0 112,0 167,0 -12,45 -20,17 -21,52zm-426 -94c15,-22 20,-23 38,-44 14,-17 23,-33 34,-49 73,0 102,-11 177,-11 97,0 210,-11 302,11 -24,45 -23,62 -93,63 -124,1 -357,30 -458,30zm-4789 -93l797 67c141,20 554,35 689,60l75 39c-228,0 -1072,-73 -1404,-105 -77,-8 -121,-6 -157,-61zm5403 -73c-80,0 -160,0 -240,0 -92,0 -144,10 -229,10 66,-98 77,-93 209,-103 106,-9 202,-11 312,-11 -13,54 -40,56 -52,104zm103 -157c-36,1 -78,-1 -114,1l-333 31c50,-95 63,-84 198,-83 106,0 173,-11 281,-11l-32 62zm-5787 -93c146,0 533,72 715,97 162,21 385,49 566,48 61,0 46,-4 82,22 22,16 38,29 52,52l-309 -45c-218,-37 -585,-94 -793,-113 -44,-3 -136,-33 -136,33 0,51 98,57 151,67 248,46 912,127 1171,141 60,3 120,38 145,73 -35,-1 -68,-8 -113,-12l-1030 -105c-66,-7 -152,-13 -225,-24 -156,-25 -89,-6 -222,-153l-54 -81zm5465 -21l44 -50c56,3 100,9 175,8 66,0 132,0 198,0 -26,35 -37,19 -94,22 -81,3 -213,20 -323,20zm-5601 -156l525 79c225,33 491,78 713,99 73,7 103,21 136,72 -65,0 -104,-9 -177,-10l-488 -74c-49,-10 -112,-19 -160,-28 -57,-11 -97,-20 -157,-30l-247 -35c-54,-2 -38,8 -72,31 -23,-34 -49,-69 -73,-104zm6070 42l-365 0c9,-33 22,-38 42,-63 19,-24 36,-38 52,-62 26,17 18,19 62,21 27,2 65,0 94,-1 73,0 99,11 167,11 -9,32 -36,62 -52,94zm-7059 -209c63,-1 191,-31 333,-31l365 11 120 191c41,67 83,125 128,185 25,34 45,53 70,86 98,124 259,309 371,420 31,31 52,41 84,73 69,70 383,319 455,336 -1,45 -28,92 -52,145l-137 259c-16,24 -29,34 -41,52 -14,23 -18,50 -30,75 -26,-7 -41,-22 -65,-40 -53,-39 -125,-191 -161,-255 -69,-124 -122,-273 -226,-95 -139,236 -163,315 -222,590 -15,72 -51,193 -96,226 0,-83 -43,-574 -83,-656 -116,-236 -192,-78 -249,-8l-375 479c-19,26 -36,45 -55,69 -35,45 -67,100 -100,150 -43,64 -161,228 -221,268l119 -359c11,-32 18,-45 27,-78 22,-83 78,-172 6,-216 -40,-25 -112,17 -176,46 -82,36 -149,67 -232,102 -42,17 -75,32 -116,50 -85,36 -301,143 -346,153 23,-35 394,-359 463,-410l415 -314c31,-22 55,-40 86,-60l264 -174c76,-44 94,-121 10,-155 -30,-12 -55,-21 -83,-32l-175 -54c-54,-15 -115,-27 -177,-42 -50,-12 -135,-29 -200,-29l14 -7c2,-1 11,-6 13,-8 98,-46 438,-150 537,-181 97,-32 193,-50 296,-79 123,-35 402,-51 187,-210 -175,-129 -235,-164 -410,-277 -37,-24 -68,-45 -109,-67l-226 -129zm7142 52l-312 -10c8,-30 24,-41 41,-73l323 0c-9,39 -28,60 -52,83zm-6267 -72c56,0 116,16 171,26l1036 182c60,12 83,20 125,83 -112,0 -1220,-227 -1280,-198 -17,-32 -34,-59 -52,-93zm6236 -84l-177 11c32,-62 41,-43 135,-42 62,0 125,0 187,0 -17,74 -32,31 -145,31zm-6340 -114c56,1 558,119 662,139l491 103c85,15 85,17 127,80l-610 -129c-106,-24 -210,-37 -316,-59l-323 -51c-9,-37 1,-3 -14,-38 -6,-15 -12,-34 -17,-45zm6537 10l-291 0c77,-115 48,-94 177,-94 46,0 117,7 146,21 -11,47 -21,34 -32,73zm-6621 -187l338 68c115,26 211,60 318,88l486 129c84,20 78,30 118,90l-314 -92c-287,-73 -535,-138 -827,-194 -139,-27 -97,-42 -119,-89zm6705 41c-61,0 -71,-9 -125,-10 -57,-2 -82,-10 -125,-10 7,-28 36,-60 52,-84l239 0c-4,48 -29,51 -41,104zm-6767 -187c54,1 114,22 166,32l808 180c111,25 93,-2 186,117 20,25 31,32 48,56l-1077 -308c-141,-30 -100,-7 -131,-77zm6850 21l-229 0c40,-152 181,-94 281,-94 -19,36 -30,60 -52,94zm-6902 -167c103,0 458,91 577,121l424 96c29,12 60,63 82,96 -43,-1 -103,-20 -137,-30l-840 -212c-75,-17 -95,15 -106,-71zm6996 11l-219 -11c24,-45 23,-62 93,-63 51,-1 105,1 157,1 -11,39 -20,26 -31,73zm-7048 -167l695 169c136,37 170,74 273,50 11,39 20,26 31,73 -237,-56 -471,-149 -766,-203 -183,-33 -224,-15 -233,-89zm7121 31c-294,-24 -203,22 -177,-73 253,0 198,-10 177,73zm-7163 -177c78,7 358,84 464,109 134,30 380,116 452,99 11,47 21,34 32,73l-490 -124c-168,-35 -248,-39 -396,-62 -59,-10 -54,-33 -62,-95zm7038 31c16,-62 65,-41 208,-41 -18,79 -12,41 -208,41zm52 -93c5,-63 23,-42 187,-42l0 31c-63,0 -110,11 -187,11zm52 -104c14,-60 16,-42 166,-42l0 42 -98 -4c-24,1 -41,4 -68,4zm-7173 -21c17,-8 439,109 475,119 95,24 290,39 360,108 1,2 3,4 5,5 28,29 43,37 55,91l-485 -130c-93,-18 -166,-36 -262,-49 -68,-10 -159,21 -150,-134 0,-2 3,-7 2,-10zm-10 -125c148,0 564,130 743,193 32,11 27,7 48,26 -129,-11 -271,-57 -394,-86 -62,-15 -130,-33 -191,-48l-206 -43 0 -42zm7235 42c12,-48 6,-32 146,-32 -13,48 -7,32 -146,32zm31 -84c25,-33 58,-21 115,-21 -18,15 -14,16 -43,21 -17,2 -53,0 -72,0zm-7266 -62c50,-42 604,106 684,128 51,14 53,8 65,59l-258 -85c-178,-43 -250,-46 -395,-74 -44,-8 -73,3 -96,-28zm7308 -31l73 0 0 10 -73 0 0 -10zm-7236 -84c87,7 512,90 588,120 56,22 24,9 47,57 -55,-13 -102,-27 -154,-43 -48,-14 -109,-21 -166,-32l-346 -50c10,-38 11,-22 31,-52zm7309 -52l0 73c-44,-23 -26,3 -27,-29 -1,-27 13,-34 27,-44zm-6715 94c-119,-28 -367,-81 -479,-83 69,-95 439,27 446,32 38,22 12,7 33,51zm-42 -135c-64,-6 -135,-32 -208,-32 17,-22 29,-22 59,-34 83,-32 121,-63 137,-27 5,12 12,74 12,93zm3779 3363c0,49 8,38 -18,64 -63,63 -101,63 -180,81 0,54 10,41 -20,63 0,-88 -14,-172 -21,-251l-10 -260c0,-161 -32,-337 -32,-520 153,-102 316,-284 465,-409l152 -140c37,-38 66,-55 104,-94l918 -883c144,-145 338,-328 457,-470 86,-104 191,-190 278,-295l648 -736c25,-29 65,-88 91,-107 11,23 14,57 20,84 8,42 15,51 25,89 17,62 29,114 43,177 32,148 20,138 -60,324 -23,54 -40,100 -66,152 -14,27 -23,46 -35,70l-193 358c-231,381 -496,741 -788,1076l-798 847c-28,23 -64,41 -86,70l-34 39c-1,2 -3,4 -5,5 -8,8 -6,6 -17,15l-71 54c-2,1 -5,2 -7,3l-25 16c-45,50 -22,43 -101,107 -40,33 -75,68 -118,102l-361 294c-56,45 -62,67 -155,75zm-3602 -4665l104 21c-46,0 -67,5 -104,-21zm-489 -114l729 0c-7,25 -30,52 -63,52 -109,0 -577,25 -666,-52zm-396 -73l0 -21c94,-8 200,-63 261,-63l510 11c128,6 363,41 489,41 -31,47 -59,32 -135,32l-334 -1c-66,0 -86,12 -155,11 -56,0 -112,0 -167,0 -114,0 -160,15 -323,11 -67,-2 -80,-21 -146,-21zm469 -167l250 0c234,0 440,31 666,31 -20,75 -124,33 -208,31 -83,-1 -174,-13 -251,-20 -43,-3 -91,2 -135,0l-395 -11c20,-17 40,-31 73,-31zm1041 -73c-15,54 -31,26 -63,73 -44,-32 7,-40 -177,-41 -54,-1 -57,-9 -104,-11 -37,-2 -77,1 -115,0 -49,-1 -47,-8 -93,-10 -36,-2 -78,0 -114,0 -77,0 -153,0 -230,0 68,-92 506,-31 667,-32 182,-1 115,12 229,21zm125 -94l-50 55c-120,-34 -4,-18 -167,-35 -241,-25 -359,-20 -606,-20l67 -37c44,-12 75,-1 103,3 63,9 159,3 226,3l219 10c67,1 145,20 208,21zm-635 -104c30,-26 21,-27 72,-31 51,-5 60,-2 95,-2l416 2c80,0 122,11 208,11 -72,107 -103,31 -354,30 -149,0 -279,-10 -437,-10zm656 -93l-521 10c20,-17 39,-35 69,-45 38,-13 325,-17 389,-17 128,0 217,10 344,10l-40 44c-45,22 -154,-2 -241,-2zm-354 -94c48,-66 155,-36 260,-42l385 -10c58,0 62,10 115,10 -21,31 -13,30 -62,32l-303 0c-145,0 -252,10 -395,10zm124 -94l24 14c-19,-2 -22,20 -24,-14zm698 -21c12,-12 59,18 13,5 -1,-1 -31,14 -13,-5zm6184 -72l72 22c-21,28 1,24 -32,11 -8,-3 -36,-28 -40,-33zm-6736 10c37,-50 74,-42 157,-41 73,0 107,-12 187,-11 66,0 132,0 198,0 79,1 116,-10 197,-10 -5,20 -21,40 -43,44 -10,2 -61,-3 -92,-3l-406 10c-79,0 -116,11 -198,11zm156 -104c28,-42 89,-68 125,-94 81,-60 73,-21 201,-39 89,-12 393,8 486,8 -8,24 -6,15 -22,30 -13,13 -20,15 -35,27 -116,85 -139,34 -412,57 -36,3 -77,-2 -114,0l-229 11zm6215 -167c45,4 85,25 130,38 51,14 79,24 129,37l262 81c-15,23 -24,31 -31,63 -37,-9 -88,-31 -132,-46 -54,-18 -223,-68 -260,-94l-98 -79zm-5611 -31c-71,0 -111,8 -166,10 -31,2 -64,-1 -94,0 -47,3 -38,10 -83,11 24,-34 79,-64 127,-71l591 -2 -56 59c-42,26 -198,-7 -319,-7zm-146 -104c23,-34 114,-83 125,-83l479 0c53,0 47,9 94,10l0 21c-67,18 -15,43 -146,42l-375 -1c-76,0 -108,11 -177,11zm5466 -104l774 256c72,25 88,23 100,56 -54,26 -402,-99 -464,-118 -169,-51 -244,-38 -329,-119 -36,-33 -53,-33 -81,-75zm-5247 -31c16,-22 88,-68 116,-82 48,-24 507,-12 582,-12 -9,24 -7,15 -23,30 -124,118 -181,63 -279,63l-396 1zm5049 -136c20,-23 12,-5 72,12l507 149c168,48 425,139 566,172 -6,28 -9,31 -21,52l-277 -97c-28,-10 -47,-18 -68,-25l-213 -69c-98,-33 -191,-59 -286,-88 -47,-15 -259,-66 -280,-106zm-4799 -21c17,-23 80,-58 110,-67l515 5c-7,23 -1,11 -15,27 0,0 -24,18 -24,18 -58,35 -508,17 -586,17zm4581 -208c33,8 52,17 87,27 35,10 63,15 91,24 240,74 661,204 895,291 66,25 297,116 363,116 -22,42 -19,40 -74,24 -100,-31 -170,-63 -284,-92 -45,-12 -46,-17 -86,-29 -35,-11 -65,-19 -97,-28 -34,-9 -65,-21 -96,-29l-481 -133c-195,-49 -225,-32 -318,-171zm-4362 83c29,-80 206,-81 270,-83 119,-4 245,0 365,0 -13,17 -80,66 -102,75 -43,19 -468,8 -533,8zm197 -135c16,-14 5,-4 25,-17 93,-62 96,-67 266,-67 127,0 230,-10 365,-10 -72,99 -203,72 -293,82l-363 12zm3946 -198l442 131c131,49 388,119 541,177l755 265c-22,33 -33,58 -52,94 -102,-69 -73,-45 -199,-93 -435,-163 -788,-256 -1231,-382 -100,-28 -115,-7 -189,-102 -31,-40 -44,-46 -67,-90zm-3737 73c39,-109 255,-81 297,-88l369 -16c-101,87 -123,55 -218,63 -115,9 -367,22 -448,41zm197 -146c38,-56 42,-45 123,-54l512 -18 -41 42c-27,11 -32,2 -73,-1l-521 31zm3405 -104c178,42 968,288 1103,344l237 85c38,13 72,30 121,46l445 170c21,15 9,-5 20,22 -38,17 -187,-55 -231,-72 -81,-30 -157,-57 -237,-86l-740 -238c-86,-22 -174,-47 -259,-74l-384 -105c-41,-17 -58,-58 -75,-92zm-3259 -10c30,-45 64,-73 124,-74l397 1c31,0 62,-1 93,1l73 9c-66,18 4,33 -156,32 -268,-2 -391,31 -531,31zm156 -125c15,-54 69,-74 124,-74l386 11c66,0 132,0 198,0 -8,24 0,9 -17,25 -46,46 -79,31 -108,29 -95,-8 -544,-10 -583,9zm2957 -73l701 184c26,7 38,12 63,21 210,68 461,133 675,209l737 252c-5,51 -32,77 -52,115l-256 -98c-90,-36 -174,-69 -264,-101l-544 -185c-185,-62 -373,-111 -562,-167l-424 -117c-37,-24 -60,-86 -74,-113zm1301 -73l85 27c-26,2 -30,1 -45,-4 -25,-8 -25,-10 -40,-23zm-4122 11l33 -40c42,-2 40,3 72,7 28,3 53,0 80,3 54,6 100,9 169,9l0 10c-121,0 -223,11 -354,11zm2706 -105c40,1 119,22 155,33l470 124c50,12 93,28 146,41l666 208c26,10 49,15 79,25 57,18 90,32 148,51l283 101c47,19 96,34 144,54 44,18 93,37 144,55 34,12 138,35 108,67 -17,19 -6,11 -60,-11 -503,-204 -1618,-525 -2182,-651 -57,-12 -49,1 -101,-97zm-2548 -60c23,11 32,14 64,25l69 35 -187 0 54 -60zm-4854 2268c0,-70 40,-91 90,-130l225 -190c39,-35 76,-59 115,-94 87,-78 382,-292 479,-364 260,-195 764,-496 1039,-648 205,-114 362,-184 561,-283l587 -255c335,-112 982,-400 1287,-400 229,0 228,32 406,73l-261 208c-19,17 -74,86 -125,114 -45,25 -24,3 -54,40 -101,122 -1187,758 -1384,886l-435 283c-190,134 -382,248 -572,374 -179,118 -484,283 -684,379l-247 107c-126,44 -204,82 -354,125 -89,25 -100,27 -185,6l-383 -96c-33,-17 -105,-86 -105,-135zm7298 -2405c98,0 251,45 343,63l2208 697c-9,35 -26,64 -42,93 -45,-3 -309,-113 -379,-141l-1270 -407 -590 -148c-64,-14 -199,-23 -236,-77 -27,-39 -29,-46 -34,-80zm-73 -177c189,4 877,224 1103,292 37,12 62,21 101,34 37,13 60,16 94,31 59,25 247,78 285,111 -56,-4 -139,-39 -194,-56l-1245 -296c-162,-22 -91,-6 -144,-116zm-41 -250l374 93c123,35 238,72 361,108 143,43 632,205 784,268l1260 509c-7,33 -13,31 -21,63 -59,-1 -263,-103 -337,-131 -121,-46 -224,-89 -344,-135l-1056 -360c-119,-38 -248,-69 -375,-104 -125,-36 -254,-57 -390,-89l-199 -40c-61,-20 -57,-121 -57,-182zm1884 2467c-3,41 -30,66 -50,96 -340,509 -715,995 -1109,1463l-1222 1349 -448 437c-51,47 -96,96 -146,146 -27,27 -46,46 -73,73l-151 140c-33,34 -50,44 -83,73 -129,114 -245,240 -378,351 -260,218 -553,641 -983,641 -272,0 -683,-162 -918,-289l-162 -89c-252,-165 -543,-359 -739,-593 -92,-111 -195,-216 -284,-331 -35,-44 -69,-87 -107,-132 -21,-27 -32,-46 -52,-73 -20,-27 -35,-44 -53,-72 -125,-205 -241,-416 -329,-639 -119,-301 -283,-923 -173,-1214 26,-68 46,-104 79,-160 36,-59 66,-88 111,-139 2,-2 8,-9 10,-11 11,-13 4,-6 14,-17l48 -46c7,-6 10,-9 17,-14l168 -145c46,-37 88,-66 136,-103l144 -106c90,-74 175,-139 266,-213 350,-286 886,-689 1249,-937l1325 -871c171,-103 357,-226 537,-317 35,-17 48,-27 80,-45 319,-174 635,-353 965,-503l333 -156c-3,34 -18,85 -19,116 -4,68 24,159 45,222 143,419 498,839 789,1169l270 281c32,32 44,40 78,68 103,86 198,177 305,257 99,74 401,304 510,333zm-1801 -2530c81,-19 290,44 378,60 289,52 706,190 986,273 31,10 55,21 84,30l1242 476c34,14 59,29 90,36 -11,131 -115,47 -206,7 -263,-114 -556,-219 -819,-325 -113,-46 -219,-83 -335,-123l-341 -118c-61,-20 -120,-37 -175,-54l-534 -153c-79,-20 -301,-88 -370,-88l0 -21zm125 -52c221,-51 -25,-112 500,11 542,127 806,240 1302,404l925 366c-7,32 -13,30 -20,63 -48,-1 -833,-312 -965,-358 -115,-41 -215,-76 -333,-115 -400,-133 -813,-242 -1226,-325 -42,-8 -54,-11 -98,-16 -39,-5 -65,-3 -85,-30zm406 -166c59,0 252,58 318,77 422,119 658,210 1058,358l939 373c46,19 48,5 59,45 -41,20 -247,-75 -299,-96 -104,-42 -195,-76 -301,-116 -246,-95 -664,-241 -933,-316l-324 -93c-222,-64 -444,-106 -673,-159 18,-25 44,-29 74,-41 22,-8 66,-32 82,-32zm2686 -21c-6,-31 22,2 10,2 -21,-2 -6,20 -10,-2zm-31 -21c11,-11 39,17 11,5 0,0 -29,12 -11,-5zm-198 687c-10,43 -28,63 -31,104 -66,-1 -335,-135 -408,-165 -49,-20 -90,-40 -140,-57 -33,-12 -42,-16 -67,-27l-211 -81c-50,-19 -95,-36 -143,-55 -200,-80 -1177,-380 -1363,-396l137 -59c30,-4 443,99 479,109 266,74 646,178 907,281 99,39 187,70 285,110l555 236zm-1156 -1103c151,-4 -8,-53 273,18l987 367c-27,-11 -58,-21 -85,-30 -373,-134 -707,-230 -1094,-322 -42,-10 -61,-6 -81,-33zm1302 749c-19,39 -34,94 -52,136 -81,182 10,165 -314,32 -87,-36 -163,-65 -253,-101 -169,-68 -480,-178 -656,-229 -394,-113 -598,-162 -995,-254l13 -8c168,-87 186,-49 401,10 81,22 163,49 249,74 173,52 321,101 489,157 46,15 70,26 114,41 46,17 80,25 125,42l462 184c40,17 205,93 240,93 15,0 31,-21 31,-52 0,-33 -56,-49 -83,-62 -36,-18 -68,-31 -108,-49 -168,-74 -606,-253 -771,-301 -51,-15 -68,-24 -119,-38l-239 -73c-91,-25 -424,-121 -502,-122 19,-26 71,-43 108,-48 83,-12 986,269 1137,312l723 256zm-1479 -697c42,-4 25,-11 52,-11l392 98c300,85 641,190 926,302 35,14 58,19 92,33 38,15 50,25 100,25 -14,28 -14,45 -26,79 -12,36 -23,46 -26,88 -59,-1 -251,-83 -323,-104l-321 -106c-373,-118 -744,-222 -1126,-311 11,-7 -3,0 20,-11 150,-67 207,-21 432,28l452 120c70,22 140,44 214,68l641 233c21,0 21,-26 21,-42 0,-45 -285,-135 -337,-152l-377 -123c-162,-53 -423,-120 -593,-156 -39,-9 -68,-11 -106,-19 -33,-7 -61,-19 -107,-19l0 -20zm1572 -73c43,10 63,28 104,31 0,105 -44,177 -52,271 -35,-41 -55,-44 -111,-66 -243,-95 -548,-196 -797,-265l-126 -41c-1,0 -5,-2 -7,-3 128,-30 173,-49 268,-19 228,74 388,143 602,231 36,15 150,91 150,17 0,-33 -39,-41 -63,-51 -35,-13 -51,-21 -88,-37l-170 -70c-64,-26 -298,-118 -366,-123 17,-11 -12,1 22,-11 53,-18 89,8 164,33 63,21 119,43 185,65l267 108c102,47 109,-10 37,-58 -18,-11 -4,1 -19,-12zm-21 -11l4 3c-1,0 -5,-2 -4,-3zm-31 -10c11,-11 40,16 12,5 0,0 -29,12 -12,-5zm-1135 -11c43,-3 24,-10 63,-10 45,0 101,25 150,37 60,15 97,31 152,46 240,66 476,166 709,249 55,20 80,43 155,43 -6,27 -10,30 -21,52 -186,-98 -824,-304 -1054,-362 -41,-11 -133,-26 -154,-55zm875 -145c104,0 299,68 400,109 35,15 26,-6 37,36 -40,-9 -66,-21 -109,-36l-322 -105c-1,-1 -4,-3 -6,-4zm271 -11l187 0c0,90 -7,66 -137,23l-50 -23zm-4956 1635c-89,-60 -254,-124 -355,-165 -501,-204 -701,-277 -1216,-105 -28,10 -55,15 -87,27 -293,116 -604,200 -892,326l-386 166c-11,6 -22,10 -36,17 -139,69 -281,129 -418,206 -146,82 -290,147 -434,233 -275,163 -542,335 -806,515 -28,19 -40,30 -67,48 -25,17 -43,28 -68,47l-498 387c-85,66 -167,130 -241,206 -72,73 -190,137 -190,268 0,261 580,325 828,379l994 225c-28,102 -248,189 -189,720l12 186c-71,5 -146,44 -212,69l-318 119c-317,103 -183,329 -178,551 -163,-86 -204,-153 -466,-191 -66,-9 -305,-68 -305,66 0,82 223,132 250,208 -235,0 -429,31 -644,54 -149,16 -300,48 -445,75 -52,10 -108,11 -108,69 0,72 129,95 180,121 144,73 286,122 431,195 64,32 125,48 187,83 21,12 13,8 24,17 -121,11 -482,128 -594,166 -457,152 -889,358 -1301,604 -68,41 -181,102 -228,157 24,107 114,73 354,73 367,0 440,-4 808,45 117,15 247,56 368,59l0 21c-34,8 -30,10 -58,26 -27,14 -34,19 -60,33l-232 122c-517,262 -1005,584 -1448,957l-694 680c-1,2 -3,4 -5,6l-67 68c-35,35 -50,61 -83,94l-252 279c-16,22 -23,25 -39,44 -48,53 -206,208 -206,263 0,33 43,62 73,62 13,0 172,-86 201,-101l422 -182c70,-26 144,-54 224,-77 82,-23 159,-43 237,-66 205,-59 573,-126 790,-126 161,0 275,7 427,42 -9,33 -135,140 -170,174 -30,31 -53,53 -83,84l-46 48c-120,140 -248,270 -363,417 -154,196 -308,389 -436,605 -87,146 -182,286 -259,438 -22,42 -38,80 -60,118 -14,23 -17,26 -29,54l-140 297c-85,175 -187,442 -242,633 -16,53 -26,79 -43,134l-111 411c-23,100 62,148 145,39l372 -461c50,-60 108,-113 159,-173l151 -162c2,-1 4,-4 5,-5 2,-2 4,-4 5,-6 77,-83 243,-264 329,-337 121,-101 233,-213 357,-309 93,-71 179,-157 268,-232 18,-16 25,-26 43,-40l598 -485c73,-54 338,-247 414,-253 3,167 41,347 41,521 0,237 6,498 -19,730l-22 247c7,64 -7,-24 4,17 0,3 2,6 3,8 18,58 79,52 116,16 21,-21 24,-30 42,-52l326 -371c32,-36 60,-70 89,-109l405 -573c114,-191 213,-391 281,-605 12,-38 9,-49 35,-68 0,56 12,105 22,155 21,101 31,222 30,323 0,70 13,125 10,177 -6,108 0,214 -12,322 -11,99 -29,226 -29,334 101,68 122,3 260,-177l179 -226c32,-39 54,-72 86,-113l497 -721c79,-130 146,-274 194,-419 19,-58 30,-98 48,-161 15,-53 37,-111 37,-171 31,23 28,107 31,187 11,209 22,187 21,438 0,76 -14,166 63,166 85,0 332,-333 404,-439 94,-140 188,-287 254,-443 55,-127 182,-412 185,-534 37,10 33,24 54,61 41,70 163,308 226,126 61,-178 78,-389 34,-574 -18,-75 -23,-115 -23,-206 147,12 268,122 405,-64 74,-101 204,-340 265,-464 71,-145 76,-70 288,-34 546,90 544,-63 666,-73 28,333 46,687 73,1020 14,175 -34,833 260,833 146,0 256,-130 358,-216 74,-62 149,-118 218,-188l208 -197c98,-81 186,-176 276,-266 24,-24 45,-43 67,-68l131 -140c29,-30 36,-44 62,-73 43,-48 86,-92 130,-141l368 -444c42,-54 77,-100 117,-153l333 -469c38,-57 70,-106 108,-163 37,-55 69,-109 104,-166 119,-198 243,-395 345,-603 105,-212 231,-407 319,-628 54,-133 92,-289 84,-437 -10,-187 -38,-307 -77,-465 -20,-77 -40,-145 -57,-214 -63,-257 -92,-166 49,-343 249,-312 483,-634 717,-959l288 -431c35,-53 60,-90 94,-145 32,-53 60,-92 92,-147l605 -1062 193 -400c13,-30 24,-54 39,-86 183,-382 336,-856 408,-1268 13,-69 21,-143 31,-209 29,-191 -74,-143 -352,-143 -153,0 -435,21 -576,49 -60,12 -123,22 -177,31 -120,20 -230,43 -345,71 -228,58 -434,112 -658,185 -108,36 -205,66 -310,107l-456 168c-57,23 -102,37 -157,62l-148 60c-54,21 -96,37 -149,60l-1071 501c-259,117 -501,273 -752,403l-136 83z"/>
   <path class="fil0" d="M16910 18937c0,-59 9,-62 8,-119 -1,-23 0,-14 2,-48l0 -343c129,-68 302,-60 302,93 0,125 -143,240 -215,326 -30,36 -49,78 -97,91zm-291 -302c33,0 71,-19 93,-31l-35 339c-23,159 -69,992 -69,1087 0,218 -43,385 146,385 159,0 135,-223 135,-322 0,-165 11,-293 11,-458 27,20 74,113 98,151 33,54 67,105 104,157 39,54 75,92 116,144 94,120 118,120 213,120 39,0 202,-69 74,-241l-202 -266c-48,-64 -80,-126 -122,-190 -21,-32 -38,-62 -59,-97 -50,-84 -104,-125 -47,-207 23,-34 45,-54 71,-85l74 -83c88,-92 138,-130 209,-259 241,-444 -172,-791 -557,-599 -79,39 -125,80 -185,138 -5,5 -15,17 -20,22 -39,45 -133,174 -127,230 4,46 50,65 79,65z"/>
   <path class="fil0" d="M13558 19072c0,295 128,411 354,583 182,139 385,274 385,531 0,111 -105,229 -219,229 -187,0 -294,-66 -371,-232 -25,-53 -56,-149 -68,-213 -25,-121 -111,-165 -215,-115 -87,41 -74,135 -61,214 115,693 889,783 1094,308 85,-198 57,-402 -65,-577l-156 -177c-2,-2 -4,-4 -6,-5l-211 -194c-97,-96 -194,-225 -153,-408 15,-68 63,-146 101,-191 279,-329 478,117 487,393 1,43 0,91 -1,136 -1,92 -16,114 52,114 38,0 71,-93 84,-125 176,-448 -81,-927 -417,-927 -217,0 -303,82 -435,222 -73,77 -179,286 -179,434z"/>
   <path class="fil0" d="M19242 19364c0,243 -9,385 66,610 34,103 139,233 267,233 173,0 270,-73 367,-227 198,-315 320,-934 320,-1272 0,-186 44,-479 -135,-479 -194,0 -152,205 -174,367 -16,117 -12,336 -38,504 -12,75 -32,157 -46,225 -29,147 -102,359 -194,482 -22,30 -42,57 -79,67 -41,-61 -49,-117 -60,-201l-13 -393c1,-54 11,-71 11,-135 -1,-107 9,-185 10,-281 0,-80 21,-180 21,-260l10 -375c0,-89 -149,-158 -196,-8 -107,348 -137,769 -137,1143z"/>
   <path class="fil0" d="M15869 11867c0,-225 29,-419 136,-603 255,-441 763,-688 1269,-688 143,0 242,26 355,83 137,71 326,228 417,343 45,56 87,102 130,162 111,154 264,437 264,641 0,320 -35,447 -194,701l-136 166c-68,67 -176,153 -259,199 -37,19 -55,32 -94,52 -577,288 -1385,127 -1708,-455 -21,-38 -39,-65 -54,-102 -30,-75 -66,-144 -84,-228 -17,-79 -42,-182 -42,-271zm1291 1333c393,0 711,-123 992,-361 35,-30 57,-42 88,-79 17,-21 16,-25 36,-47 110,-117 227,-335 267,-494 22,-92 43,-187 43,-300 0,-557 -367,-1084 -847,-1308l-260 -104c-362,-117 -843,6 -1133,203l-147 113c-213,180 -369,420 -436,699 -9,36 -24,108 -28,149 -3,28 0,54 -1,82 -6,115 -14,0 -1,157 9,111 -10,66 28,232 68,299 235,559 471,748 234,187 609,310 928,310z"/>
   <path class="fil0" d="M15952 19447c10,-42 53,-116 73,-156 20,-40 51,-122 83,-146l0 250c-90,21 -94,38 -156,52zm-479 739c0,112 64,100 90,80 23,-17 181,-378 206,-440 31,-77 97,-97 206,-127l133 -33c0,262 -2,390 39,638 21,128 39,132 138,132 112,0 105,-423 105,-489 -1,-207 -11,-384 -11,-583l0 -885c1,-91 -27,-167 -135,-167 -107,0 -141,93 -163,160 -164,504 -608,1244 -608,1714z"/>
   <path class="fil0" d="M20804 18781c0,-74 10,-132 10,-219 0,-76 0,-153 0,-229 89,-60 97,-73 208,-73 135,0 402,256 70,434 -52,28 -217,85 -288,87zm-334 1062c0,191 22,281 188,281 88,0 102,-95 112,-170 38,-310 23,-534 23,-850 46,-11 91,-14 142,-26 49,-11 90,-22 130,-35 407,-136 621,-501 332,-877 -148,-193 -496,-218 -695,-18l-77 69c-82,98 -80,642 -93,792 -7,89 -17,187 -20,282 -3,143 -42,272 -42,552z"/>
   <path class="fil0" d="M17160 10930c300,0 630,138 797,380l98 183c9,24 19,55 21,83 -97,0 -209,-21 -344,-21 -102,0 -411,4 -468,31 25,38 50,36 149,50 309,42 355,54 694,54l11 219c-150,35 -367,-61 -542,-21 6,66 67,47 209,83 339,89 326,24 293,116 -14,40 -22,69 -40,107 -301,620 -1131,771 -1537,322 -136,-150 -269,-327 -305,-538 -8,-47 3,-63 -15,-100l335 50c252,28 406,23 654,23l0 -42 -486 -86c-74,-13 -156,-28 -239,-42 -75,-12 -178,-21 -253,-39l26 -140c16,-46 -11,-22 26,-37l15 -6c98,-22 235,15 318,-4 -20,-76 -230,-94 -302,-94 30,-129 226,-294 341,-366 125,-78 345,-165 544,-165zm-1083 896c0,160 43,310 101,430 14,30 25,56 41,83 15,25 13,18 26,37 11,15 13,21 24,39 143,237 438,473 776,473 209,0 238,0 433,-56 254,-74 515,-277 636,-520l70 -180c47,-158 38,-229 38,-390 0,-369 -284,-721 -624,-844 -215,-78 -423,-87 -651,-45 -461,85 -870,470 -870,973z"/>
   <path class="fil0" d="M17722 18302c0,174 206,146 375,146 0,79 -26,131 -38,212 -34,238 -43,485 -72,687l-44 715c-1,160 206,169 265,79 43,-67 25,-481 35,-600 4,-50 10,-80 10,-146 0,-64 10,-81 10,-146 1,-191 75,-510 73,-729 -1,-82 1,-75 83,-73 66,1 97,-5 147,-9 70,-5 83,11 127,-29 124,-110 43,-276 -115,-262 -197,17 -426,20 -625,42 -95,11 -231,6 -231,113z"/>
   <path class="fil0" d="M14755 18781l312 -11 -166 1323c-1,82 -89,343 114,343 180,0 155,-206 156,-333 1,-54 8,-58 11,-104 2,-41 -3,-83 1,-123 7,-62 18,-164 20,-231 7,-276 93,-605 93,-895 87,-21 221,-25 322,-32 298,-21 197,-291 116,-291 -124,0 -747,79 -883,106 -35,8 -118,24 -148,40 -92,47 -69,208 52,208z"/>
   <path class="fil0" d="M20221 23164c0,53 10,108 34,142 26,35 101,59 101,-17 0,-46 -57,28 12,-384l146 -655c6,-22 12,-39 18,-66l22 -61c0,151 2,505 28,638 8,40 14,58 22,92 21,84 91,84 121,3l193 -556c9,-29 3,-21 21,-42 0,78 -13,181 -23,259 -16,132 -54,392 -35,518 15,98 -13,223 79,223 25,0 30,-17 52,-31 0,-73 -21,-124 -21,-209l0 -156c0,-329 95,-549 50,-914 -10,-74 -11,-95 -71,-127 -42,22 -50,19 -62,73 -9,40 -13,74 -22,114l-60 220c-12,38 -22,66 -33,103l-70 201c-9,24 -10,26 -19,54 -15,50 11,21 -25,47l-14 -736c-8,-62 8,-191 -70,-191 -54,0 -68,97 -84,145 -9,26 -21,60 -29,86 -10,31 -13,59 -23,91 -60,191 -238,986 -238,1136z"/>
   <path class="fil0" d="M19575 14762c0,96 49,185 83,250 72,138 147,211 241,322l444 419c10,9 13,11 22,20 2,1 4,3 6,5 176,149 417,316 607,444 303,203 925,572 1273,747 65,33 310,141 364,146l0 21c-28,6 -38,13 -68,25l-223 79 0 31c211,0 247,-31 420,-79 116,-32 110,-6 110,-119 0,-61 -121,-343 -197,-343 -24,0 -12,3 -42,10 -7,28 -10,20 -10,42 0,56 118,181 125,260 -103,-24 -483,-193 -593,-251l-337 -183c-75,-42 -135,-81 -209,-125l-679 -435c-141,-94 -415,-289 -538,-399l-89 -77c-32,-32 -53,-59 -90,-87 -83,-65 -338,-359 -394,-449 -47,-75 -89,-124 -135,-208 -25,-46 -33,-89 -91,-66z"/>
   <path class="fil0" d="M6010 12450c0,60 81,290 100,380 12,58 5,86 56,99 44,-28 32,-28 32,-145l-31 -125c-5,-22 -12,-44 -19,-65 -13,-37 -13,-19 -13,-71 52,38 140,247 625,490 231,115 746,300 1028,377 66,18 151,39 220,61 196,64 1097,255 1267,275 48,5 62,-17 67,-68 -69,-46 -515,-133 -626,-155l-542 -124c-370,-92 -755,-195 -1105,-342 -34,-15 -59,-25 -95,-41 -224,-96 -476,-243 -654,-408 -30,-28 -47,-30 -70,-65l370 58c87,14 98,0 98,-58 0,-52 -145,-60 -236,-75 -31,-6 -472,-94 -472,2z"/>
   <path class="fil0" d="M7384 6818c0,299 487,168 722,267 256,108 283,357 -42,538 -205,115 -544,216 -780,76 -97,-58 -91,-127 -160,-173 -22,12 -52,18 -52,52 0,160 233,291 406,291 247,0 443,-19 658,-154 141,-88 279,-198 279,-387 0,-93 -64,-203 -117,-247 -199,-166 -311,-108 -575,-154 -348,-61 -245,-207 -85,-449 100,-149 305,-425 495,-419 129,4 263,187 159,417 -49,106 -80,80 -54,134 83,-23 146,-213 146,-271 0,-119 -5,-279 -143,-347 -241,-120 -469,145 -598,304 -80,98 -259,359 -259,522z"/>
   <path class="fil0" d="M19232 22727c-84,0 -126,6 -194,25 -60,17 -124,32 -140,89 56,32 335,-21 447,-32 109,-12 311,3 407,-20 6,-64 22,-32 -10,-94 -83,-162 -141,-243 -263,-382 -25,-29 -93,-128 -133,-128 -25,0 -52,25 -52,63 0,47 305,354 312,448 -48,-23 -326,-88 -395,-115 -31,-12 -50,-22 -90,-35 -186,-61 -432,-188 -597,-298 -210,-140 -381,-285 -555,-466 -26,-27 -31,-41 -57,-68 -27,-28 -33,-37 -58,-67l-115 -144c-23,-30 -33,-36 -54,-72l-150 -235c-16,-29 -27,-49 -45,-80 -35,-58 -120,-222 -164,-222 -56,0 -13,86 15,152 13,31 24,53 36,79 101,219 375,585 551,761 325,325 696,612 1136,769 39,14 147,43 168,72z"/>
   <path class="fil0" d="M23687 11919c0,117 261,-54 354,-62l-113 1043c-4,41 -8,70 -11,103 -11,141 -22,248 -22,405 -71,38 -157,96 -236,128 -49,20 -76,8 -76,60 0,98 282,-56 302,-84 70,47 55,33 104,21 21,-89 5,-82 87,-121 53,-26 95,-56 144,-75 120,-49 99,-50 241,-71 123,-18 66,-108 -3,-108 -102,0 -167,35 -250,73 -58,27 -153,100 -208,104l113 -979c17,-184 57,-346 12,-541 106,-56 233,-114 353,-114 11,39 23,43 63,52 160,-139 -32,-220 -306,-97l-377 164c-34,14 -63,28 -95,40 -38,13 -76,12 -76,59z"/>
   <path class="fil0" d="M4480 18010c0,70 18,130 83,136 32,-61 21,-120 21,-209 44,12 19,8 79,98l159 206c159,199 521,433 755,536 335,149 640,202 1027,202 75,0 88,-77 24,-98l-271 -20c-202,-25 -443,-75 -625,-146 -276,-108 -504,-238 -724,-431 -78,-69 -329,-348 -351,-430 59,5 604,215 604,83 0,-73 -16,-55 -156,-84 -144,-29 -444,-134 -563,-134 -48,0 -44,85 -49,128 -6,55 -13,111 -13,163z"/>
   <path class="fil0" d="M22761 12909c-662,154 -1266,173 -1937,84 -209,-28 -310,-84 -603,-84 -37,0 -32,20 -32,62 45,1 105,16 154,24 316,53 873,153 1158,153 292,0 589,-5 873,-53l419 -81c52,-11 89,-31 145,-33 -98,185 -250,245 -250,334 0,28 28,41 52,41 69,0 343,-336 343,-437 0,-47 -78,-56 -123,-64 -47,-8 -95,-27 -143,-44 -66,-22 -219,-90 -285,-90 -50,0 -36,35 -6,57 23,18 55,30 82,44 37,18 135,62 153,87z"/>
   <path class="fil0" d="M3699 10472c-18,0 -16,20 -29,33 -21,20 -17,15 -46,27 -37,15 -61,26 -96,40 -70,28 -128,49 -193,78 -170,75 -243,84 -417,124 1,44 1,47 32,62 155,72 403,-80 551,-145 55,-25 88,-47 157,-63 0,81 -67,504 -84,604 -14,85 -146,708 -21,708 91,0 59,-157 70,-242l29 -274c27,-187 51,-340 81,-522 6,-31 16,-90 18,-128 8,-158 -35,-179 85,-217 182,-58 433,-178 613,-178 55,0 187,94 187,0 0,-77 -119,-105 -156,-105 -166,0 -505,119 -686,190 -76,30 -28,8 -95,8z"/>
   <path class="fil0" d="M3553 16938c0,-174 -93,-930 -166,-1083 -65,-15 -33,0 -73,0 -18,79 36,250 49,336 62,410 97,724 97,1143 97,65 97,12 132,-76 59,-153 110,-467 163,-680 54,-213 133,-421 212,-622 18,-47 72,-162 76,-205 -43,-45 -80,-66 -113,1 -103,207 -241,626 -298,849 -14,56 -25,123 -34,173l-26 131c-8,22 -4,16 -19,33z"/>
   <path class="fil0" d="M11351 7234c-37,0 -42,-46 -42,-83 0,-84 147,-233 219,-250 -16,68 -30,132 -56,194 -15,35 -83,139 -121,139zm-21 104c151,0 164,-92 219,-156 0,223 0,326 -72,522 -64,177 -294,358 -497,224 -57,-38 -71,-79 -118,-79 -29,0 -106,63 60,178 215,149 497,17 620,-206 185,-338 100,-636 100,-972 -50,-34 -5,-31 -114,-31 -130,0 -335,225 -308,390 12,66 39,130 110,130z"/>
   <path class="fil0" d="M23916 16771c0,81 -64,269 -83,385 -57,339 -177,961 -177,1260 0,40 7,20 10,63 90,21 104,-2 238,-44 29,-9 55,-22 92,-33l282 -92c75,-22 169,-38 169,-91 0,-107 -285,2 -335,18 -105,32 -261,98 -341,117 0,-306 57,-542 101,-794l128 -778c0,-54 -11,-115 -63,-115 -59,0 -21,71 -21,104z"/>
   <path class="fil0" d="M5229 11597c-121,0 52,-218 117,-279 37,-35 59,-46 113,-34 -23,43 -149,313 -230,313zm-114 -32c0,88 61,155 144,125 123,-43 117,-111 168,-125 0,190 80,478 -44,654 -62,88 -103,96 -206,96 -252,0 -318,-166 -364,-166 -180,0 49,281 385,281 239,0 365,-215 365,-396l-34 -518c-22,-156 35,-145 -20,-219l-9 -12c-21,-31 -23,-63 -83,-63 -108,0 -302,258 -302,343z"/>
   <path class="fil0" d="M9685 8557c102,-9 12,-138 94,-292 78,41 54,15 74,114 11,59 23,98 45,152 193,478 398,825 814,1113 64,44 440,276 504,276 14,0 119,-40 -59,-128 -322,-159 -495,-277 -746,-525 -100,-99 -226,-293 -296,-422 -70,-131 -176,-367 -211,-518 53,5 255,105 302,105 13,0 13,-10 22,-20l15 -16c1,-1 3,-4 4,-6 -35,-67 -78,-72 -189,-113l-225 -87c-109,-44 -126,-34 -151,93 -13,69 -24,216 3,274z"/>
   <path class="fil0" d="M25447 12773c6,-78 50,-180 114,-198 0,98 -50,164 -114,198zm343 63c0,-64 37,-129 71,-179 41,-61 50,-88 117,-123 -10,41 -21,59 -36,100 -22,64 -46,138 -80,190 -15,22 -72,80 -72,12zm-281 62c-33,0 -49,-29 -52,-62 146,-34 275,-344 83,-344 -106,0 -197,182 -197,312 0,88 54,198 135,198 156,0 155,-81 239,-104 13,49 77,76 153,39 90,-43 74,-90 118,-122 16,68 58,94 125,94 45,0 304,-164 177,-219 -54,-23 -73,37 -131,77 -32,23 -17,17 -67,17 -12,-48 -16,-61 -9,-124 6,-52 30,-117 -14,-156 -156,-140 -314,192 -369,241 -47,42 -140,153 -191,153z"/>
   <path class="fil0" d="M24156 22519c3,-41 26,-92 46,-121l89 -88c-22,97 -25,199 -135,209zm-94 0c0,46 63,114 115,114 84,0 92,-62 135,-94 0,182 1,317 -49,451 -31,83 -103,159 -184,191 -240,94 -210,-102 -289,-108 -132,-11 -26,237 147,237 163,0 264,-37 372,-169 147,-179 128,-568 105,-787 -4,-37 -11,-137 -50,-137 -93,0 -183,81 -232,142 -33,40 -70,109 -70,160z"/>
   <path class="fil0" d="M24791 13086c-70,0 -63,-30 -63,-115 0,-91 132,-313 225,-295 92,17 23,116 -36,244 -18,41 -80,166 -126,166zm239 -479c-307,-72 -519,434 -335,575 59,45 117,24 168,-14 43,-33 78,-82 109,-130 35,-53 62,-129 89,-161 62,265 292,155 292,73 0,-21 -30,-52 -42,-52 -57,0 -207,195 -127,-449 16,-121 54,-207 -50,-207 -45,0 -40,80 -60,169 -13,63 -21,149 -44,196z"/>
   <path class="fil0" d="M25259 18073c-103,0 -29,-172 -10,-209 117,-233 144,-12 163,-104 9,-42 -82,-166 -228,50 -114,169 -83,367 65,367 104,0 191,-125 208,-125 56,0 9,17 67,5 73,-16 98,-84 152,-99 15,179 200,137 305,-7 22,-30 101,-154 101,-191 0,-19 -58,-117 -122,14 -22,45 -180,280 -180,143 0,-82 56,-177 -42,-177 -48,0 -117,143 -187,188 -1,0 -17,9 -17,9 -3,1 -23,22 -15,-30l42 -115c99,-158 237,-48 260,-42l23 -30c-20,-65 -115,-101 -182,-88 -72,14 -140,60 -174,107 -90,128 -59,159 -77,205 -10,26 5,-1 -12,19l-54 50c-17,17 -60,60 -86,60z"/>
   <path class="fil0" d="M3970 11805c-2,-4 -21,-40 -21,-42 0,-106 81,-210 127,-279 27,-41 57,-71 95,-103 43,-37 80,-59 142,-45 -39,37 -50,69 -76,122 -50,99 -149,337 -267,347zm-104 -94c0,102 8,249 177,177 84,-35 129,-95 177,-166 36,26 65,133 238,71 37,-13 295,-125 157,-217 -40,9 -291,225 -291,42 0,-98 161,-354 -42,-354 -188,0 -416,296 -416,447z"/>
   <path class="fil0" d="M11903 7120c-71,-105 -5,-176 -42,-333 -24,-6 -24,-9 -52,-11 -28,59 -125,458 114,458 33,0 54,-5 76,-18 34,-21 21,-24 49,-44l-28 159c-11,55 -18,101 -30,157l-60 221c-15,36 -24,34 -27,77 1,2 3,3 4,6 1,3 4,5 5,6 7,6 2,5 16,15 85,58 118,-92 139,-175 40,-155 71,-373 110,-494 11,-32 120,-389 17,-389 -71,0 -98,101 -134,189 -29,74 -66,168 -157,176z"/>
   <path class="fil0" d="M8623 6839l-192 57c-43,10 -58,-2 -58,47 0,88 184,12 209,0 0,55 -17,93 -26,151 -24,150 -46,473 171,473 58,0 198,-87 198,-135 0,-28 -5,-29 -10,-52 -124,-10 -79,52 -188,52 -108,0 -83,-67 -83,-219 0,-27 32,-312 83,-312 138,0 188,37 188,-42 0,-63 -122,-62 -177,-62l42 -156c17,-58 80,-198 10,-198 -36,0 -42,47 -55,80l-78 203c-12,38 -31,81 -34,113z"/>
   <path class="fil0" d="M9487 7432c-35,-152 170,-479 313,-479 40,0 3,-3 31,11 -3,29 -7,22 -29,43l-120 214c-55,98 -102,209 -195,211zm-93 -52c0,121 72,234 225,79 61,-61 68,-100 108,-110 0,145 138,190 293,64 90,-73 117,-112 30,-158 -85,45 -86,115 -209,115 -35,-151 161,-459 -93,-459 -133,0 -354,320 -354,469z"/>
   <path class="fil0" d="M10050 6984c0,71 102,42 145,21 0,123 -41,228 31,365 142,271 463,-167 292,-167 -35,0 -57,50 -73,73 -26,37 -42,51 -83,73 -116,-78 -69,-257 -42,-375l208 -10c8,-12 32,-35 32,-42 0,-98 -111,-60 -209,-52 0,-67 34,-126 48,-182 12,-50 25,-150 15,-193 -99,-23 -73,22 -93,104 -15,58 -37,109 -53,167 -30,110 -26,124 -76,142 -47,18 -142,24 -142,76z"/>
   <path class="fil0" d="M22147 22966c0,41 -10,104 62,104 62,0 52,-161 52,-229 82,19 89,52 198,52 34,0 40,-29 52,-52 -25,-47 -15,-44 -77,-58 -51,-12 -71,-26 -110,-35 20,-78 233,-335 99,-306 -37,8 -67,60 -92,94 -10,13 -10,14 -17,25 -2,2 -3,4 -4,6l-18 24c0,-112 21,-200 21,-322 0,-244 18,-229 -62,-229 -16,66 -24,142 -33,217 -32,265 -71,413 -71,709z"/>
   <path class="fil0" d="M5948 11045c42,63 58,21 187,10 -2,121 -54,219 12,405 15,44 46,87 86,112 99,63 235,-45 235,-100 0,-28 -5,-29 -10,-52 -113,-27 -64,54 -167,62 -25,-24 -33,-37 -45,-79 -45,-159 2,-323 4,-379 45,-1 49,-10 104,-10 56,-1 60,-1 104,-11 16,-67 15,-20 0,-83 -60,-14 -114,-10 -187,-10 13,-58 24,-95 35,-163 12,-69 45,-127 -46,-129l-84 281c-24,76 -32,46 -181,100 -38,13 -37,9 -47,46z"/>
   <path class="fil0" d="M21241 22977c0,-77 34,-157 64,-207 42,-69 61,-109 134,-147 5,24 9,30 10,62 -46,12 -48,33 -61,74l-85 186c-7,12 -62,81 -62,32zm-94 0c0,108 109,167 218,61l10 -10c34,-36 44,-81 74,-103 5,62 65,166 135,166 86,0 194,-177 63,-177 -37,0 -33,30 -63,52 -22,-33 -24,-52 -37,-98l-56 -214c-1,-22 20,-158 -110,-89 -54,29 -105,92 -138,143 -56,85 -96,164 -96,269z"/>
   <path class="fil0" d="M10747 7088c3,-36 51,-211 135,-218 0,126 -50,173 -135,218zm-114 84c0,437 503,146 512,136 34,-34 7,-66 -13,-95 -109,9 -383,236 -406,-41 251,-59 332,-396 146,-396 -153,0 -239,233 -239,396z"/>
   <path class="fil0" d="M26186 17531c-37,1 -46,7 -78,16 -44,13 -46,6 -68,36 14,26 7,32 44,38 26,5 39,-6 81,-6 0,67 -24,162 24,267 107,236 266,140 300,66 22,-50 -1,-25 -1,-63 -120,-28 -72,42 -136,42 -43,0 -73,-105 -83,-146 -19,-86 4,-125 10,-208 44,-4 56,-10 116,-10 125,1 92,-94 30,-94 -43,0 -97,7 -125,21 3,-37 35,-142 48,-181 8,-23 98,-272 -9,-209 -14,8 -24,38 -30,55 -27,83 -117,305 -123,376z"/>
   <path class="fil0" d="M5563 16480c0,-104 14,-131 -52,-146 -39,57 -7,211 -48,421 -12,59 -16,83 -4,131 166,39 33,-92 210,-352 23,-35 48,-74 91,-85l10 208c0,227 126,150 126,125 0,-59 -17,-75 -21,-125 -3,-47 2,-99 0,-146 -14,-275 -138,-241 -262,-85 -23,29 -18,32 -50,54z"/>
   <path class="fil0" d="M4397 16709c0,124 147,100 216,117 109,27 75,143 -60,143 -14,0 -117,-89 -130,2 -7,52 43,113 151,113 227,0 350,-375 -73,-375 6,-70 48,-136 93,-167 4,43 6,43 42,52 35,-25 81,-145 -10,-145 -101,0 -229,150 -229,260z"/>
   <path class="fil0" d="M23073 22362c-59,14 -152,44 -167,105 40,26 64,23 136,-11l-11 167c0,288 271,296 271,177 0,-90 -93,-34 -125,-32 -48,-90 -31,-180 -31,-312 0,-56 76,-22 135,-21 15,-21 32,-27 32,-52 0,-61 -95,-52 -136,-52 0,-97 26,-130 0,-239 -89,0 -56,26 -73,113 -9,44 -30,113 -31,157z"/>
   <path class="fil0" d="M24812 18146c-98,0 -53,-166 -24,-232 10,-23 19,-43 31,-63 21,-36 24,-22 34,-59 63,5 73,65 73,135 0,92 -26,219 -114,219zm-146 -104c0,323 364,236 364,-73 0,-96 9,-121 -31,-198 -9,-18 -14,-28 -25,-48 -18,-32 -1,-35 -58,-35 -120,0 -250,222 -250,354z"/>
   <path class="fil0" d="M5719 11399c8,-30 3,-17 21,-41 19,-23 15,-18 41,-32 -9,36 -35,55 -62,73zm-146 114c0,222 236,155 357,128 83,-19 76,1 112,-65 -19,-36 -18,-52 -63,-52 -58,0 -302,110 -302,0 0,-54 36,-3 141,-98 88,-79 129,-240 -31,-209 -44,8 -83,34 -108,59 -46,47 -106,149 -106,237z"/>
   <path class="fil0" d="M5136 16792c-106,0 -20,-204 31,-281 64,17 0,31 94,31 0,82 -8,250 -125,250zm10 104c222,0 316,-479 104,-479l-41 0c-178,0 -342,479 -63,479z"/>
   <path class="fil0" d="M22542 22654l42 135c67,130 206,62 291,0 199,-141 84,-254 -16,-131 -39,48 -138,149 -192,69 20,-27 45,-32 73,-52 55,-39 193,-219 42,-219 -95,0 -145,75 -184,139 -29,47 -30,24 -56,59z"/>
   <path class="fil0" d="M9165 6974c-12,-51 -5,-77 -42,-104 -59,39 -18,119 -42,291 -19,136 -52,128 -52,323 0,33 26,36 52,42 22,-19 28,-20 38,-56 22,-80 44,-496 233,-496 27,0 156,49 156,-10 0,-79 -164,-157 -278,-60 -30,25 -41,52 -65,70z"/>
   <path class="fil0" d="M27196 17854c71,-16 37,-43 100,-170 34,-67 65,-119 129,-153 67,101 4,145 48,233 32,63 124,126 149,17 -54,-81 -84,-13 -83,-177 1,-92 -12,-166 -104,-166 -107,0 -123,71 -187,114 0,-92 24,-114 -63,-114 -16,70 -9,145 -10,229 -1,97 -45,143 21,187z"/>
   <path class="fil0" d="M23708 22456c-2,-113 -24,-97 -52,-104 -50,36 -31,192 -31,292 0,43 38,41 62,41 36,0 39,-27 50,-54 14,-34 21,-46 40,-75 28,-44 56,-96 108,-110 16,67 14,218 115,218 34,0 40,-29 52,-52 -80,-151 -21,-46 -52,-167 -73,-287 -234,-27 -292,11z"/>
   <path class="fil0" d="M4844 11357c-11,-49 -24,-101 -73,-114 -66,48 13,58 11,250 0,87 -55,270 41,270 89,0 -20,-312 201,-423 119,-60 164,24 164,-76 0,-63 -184,-76 -295,48 -19,22 -27,31 -49,45z"/>
   <path class="fil0" d="M26321 12534c0,25 6,37 17,56 10,15 7,11 19,23 92,89 136,29 110,139 -74,18 -146,-11 -146,63 0,106 271,78 271,-104 0,-114 -177,-147 -177,-177 0,-161 104,-48 104,-177 0,-93 -198,27 -198,177z"/>
   <path class="fil0" d="M21886 22591c-16,-34 0,-62 -41,-62 -62,0 -53,163 -52,229 0,107 -24,171 0,271 122,28 75,-48 122,-242 70,-291 215,-80 169,-279 -135,0 -125,35 -198,83z"/>
   <path class="fil0" d="M4053 17157c0,14 88,102 112,-45 7,-42 9,-57 14,-100 26,-234 20,-240 20,-480 0,-62 -22,-63 -83,-63 -19,81 -36,405 -42,521 -4,61 -21,99 -21,167z"/>
   <path class="fil0" d="M26883 17688c4,-45 17,-50 21,-94 46,-1 33,-7 73,-11 0,67 -24,103 -94,105zm-83 0c0,170 281,112 281,-94 0,-88 -100,-148 -170,-109 -55,30 -111,124 -111,203z"/>
   <path class="fil0" d="M4865 16875c94,0 63,-79 63,-322 0,-52 -3,-136 -52,-136 -44,0 -33,47 -32,94 1,45 2,88 -4,131 -8,50 -27,233 25,233z"/>
   <path class="fil0" d="M23406 22414c0,48 29,74 32,136 3,76 -22,135 51,135 76,0 11,-207 -6,-243 -17,-38 -18,-49 -56,-59 -6,9 -21,26 -21,31z"/>
   <path class="fil0" d="M26633 17792l42 -12c16,-65 3,-65 -12,-132 -17,-71 1,-73 -61,-106 -34,64 -13,47 -10,125 2,69 -2,95 41,125z"/>
   <path class="fil0" d="M23437 22081c0,78 -5,73 63,73 65,0 46,-138 -63,-73z"/>
   <path class="fil0" d="M26571 17375c0,37 104,52 104,-10 0,-65 -104,-73 -104,10z"/>
   <path class="fil0" d="M4116 16240c0,90 26,76 83,63l0 -21c30,0 3,-34 3,-34 -15,-20 1,-9 -24,-18 0,-27 -47,1 -62,10z"/>
   <path class="fil0" d="M4876 16178c137,0 70,-83 20,-83l-20 0c-22,45 -21,43 0,83z"/>
  </g>
 </g>
</svg>
