<svg xmlns="http://www.w3.org/2000/svg" width="864" height="864" viewBox="0 0 864 864"><path d="M478.49,553.51c0-1.67.25-1.76.22-3.37a9.18,9.18,0,0,1,.06-1.37v-9.72c3.66-1.93,8.56-1.7,8.56,2.64,0,3.54-4.05,6.8-6.09,9.24C480.39,552,479.85,553.14,478.49,553.51ZM470.24,545a6.25,6.25,0,0,0,2.64-.88l-1,9.61c-.65,4.51-1.95,28.12-1.95,30.81,0,6.18-1.22,10.91,4.14,10.91,4.5,0,3.82-6.32,3.82-9.12,0-4.68.31-8.31.31-13,.77.57,2.1,3.21,2.78,4.28.94,1.54,1.9,3,2.95,4.45s2.13,2.61,3.29,4.09c2.66,3.4,3.34,3.4,6,3.4,1.1,0,5.72-2,2.09-6.83l-5.72-7.54c-1.36-1.82-2.27-3.57-3.46-5.39-.6-.91-1.08-1.76-1.67-2.75-1.42-2.38-2.95-3.54-1.33-5.87a27.3,27.3,0,0,1,2-2.41l2.1-2.35c2.49-2.61,3.91-3.68,5.92-7.34,6.83-12.59-4.88-22.42-15.79-17a19.19,19.19,0,0,0-5.24,3.91c-.14.14-.43.48-.57.63-1.11,1.27-3.77,4.93-3.6,6.52A2.19,2.19,0,0,0,470.24,545Z" fill="#fff" fill-rule="evenodd"/><path d="M383.47,557.34c0,8.36,3.63,11.65,10,16.52,5.15,3.94,10.91,7.77,10.91,15,0,3.15-3,6.49-6.21,6.49-5.3,0-8.33-1.87-10.52-6.57a30.71,30.71,0,0,1-1.92-6c-.71-3.43-3.15-4.68-6.1-3.26-2.46,1.16-2.1,3.83-1.73,6.07,3.26,19.64,25.2,22.19,31,8.73A16.4,16.4,0,0,0,407.11,578l-4.42-5a1,1,0,0,0-.17-.14l-6-5.5c-2.75-2.72-5.5-6.37-4.34-11.56a14.55,14.55,0,0,1,2.86-5.42c7.91-9.32,13.55,3.32,13.81,11.14,0,1.22,0,2.58,0,3.86,0,2.61-.45,3.23,1.47,3.23,1.08,0,2-2.64,2.39-3.54,5-12.7-2.3-26.28-11.82-26.28-6.16,0-8.59,2.32-12.34,6.29C386.48,547.22,383.47,553.14,383.47,557.34Z" fill="#fff" fill-rule="evenodd"/><path d="M544.59,565.61c0,6.89-.25,10.92,1.87,17.29,1,2.92,3.94,6.61,7.57,6.61,4.91,0,7.66-2.07,10.4-6.44,5.62-8.93,9.08-26.47,9.08-36.05,0-5.28,1.24-13.58-3.83-13.58-5.5,0-4.31,5.81-4.93,10.4-.46,3.32-.34,9.53-1.08,14.29-.34,2.12-.91,4.45-1.3,6.38-.83,4.16-2.9,10.17-5.5,13.66a4.2,4.2,0,0,1-2.24,1.9c-1.17-1.73-1.39-3.32-1.7-5.7l-.37-11.14c0-1.53.31-2,.31-3.83,0-3,.25-5.24.28-8,0-2.27.6-5.1.6-7.37l.28-10.63c0-2.52-4.22-4.48-5.55-.23C545.44,543.08,544.59,555,544.59,565.61Z" fill="#fff" fill-rule="evenodd"/><path d="M451.33,568a28.61,28.61,0,0,1,2.07-4.43c.57-1.13,1.45-3.46,2.35-4.14v7.09C453.2,567.09,453.09,567.57,451.33,568Zm-13.58,20.94c0,3.18,1.82,2.84,2.56,2.27s5.13-10.71,5.83-12.47c.88-2.18,2.75-2.75,5.84-3.6l3.77-.94c0,7.43-.05,11.06,1.11,18.09.6,3.63,1.11,3.74,3.91,3.74,3.18,0,3-12,3-13.86,0-5.87-.31-10.89-.31-16.53V540.53c0-2.58-.77-4.74-3.83-4.74s-4,2.64-4.62,4.54C450.34,554.61,437.75,575.59,437.75,588.91Z" fill="#fff" fill-rule="evenodd"/><path d="M588.87,549.09c0-2.1.28-3.75.28-6.21v-6.49c2.53-1.7,2.75-2.07,5.9-2.07,3.83,0,11.39,7.25,2,12.3A28.47,28.47,0,0,1,588.87,549.09Zm-9.47,30.1c0,5.41.63,8,5.33,8,2.5,0,2.89-2.7,3.18-4.82,1.07-8.79.65-15.14.65-24.1,1.3-.31,2.58-.39,4-.73s2.55-.63,3.69-1c11.53-3.85,17.6-14.2,9.41-24.86-4.2-5.47-14.06-6.18-19.7-.51l-2.18,2c-2.33,2.78-2.27,18.2-2.64,22.45-.2,2.52-.48,5.3-.57,8C580.51,567.6,579.4,571.25,579.4,579.19Z" fill="#fff" fill-rule="evenodd"/><path d="M501.51,535.51c0,4.93,5.83,4.14,10.63,4.14,0,2.24-.74,3.71-1.08,6-1,6.74-1.22,13.74-2,19.47l-1.25,20.27c0,4.53,5.84,4.79,7.51,2.24,1.22-1.9.71-13.64,1-17a37.77,37.77,0,0,0,.29-4.14c0-1.81.28-2.29.28-4.14,0-5.41,2.13-14.45,2.07-20.66,0-2.33,0-2.13,2.35-2.07a32.57,32.57,0,0,0,4.17-.26c2-.14,2.35.32,3.6-.82,3.51-3.12,1.22-7.82-3.26-7.43-5.58.49-12.08.57-17.72,1.2C505.36,532.62,501.51,532.48,501.51,535.51Z" fill="#fff" fill-rule="evenodd"/><path d="M417.4,549.09l8.85-.32-4.71,37.51c0,2.32-2.52,9.72,3.23,9.72,5.1,0,4.4-5.84,4.42-9.44,0-1.53.23-1.64.32-2.95s-.09-2.35,0-3.48c.2-1.76.51-4.65.57-6.55.2-7.83,2.64-17.15,2.64-25.37a64,64,0,0,1,9.12-.91c8.45-.59,5.59-8.25,3.29-8.25-3.51,0-21.17,2.24-25,3a24.33,24.33,0,0,0-4.19,1.13C413.32,544.52,414,549.09,417.4,549.09Z" fill="#fff" fill-rule="evenodd"/><path d="M572.34,673.33a7.35,7.35,0,0,0,1,4c.73,1,2.86,1.68,2.86-.48,0-1.3-1.62.8.34-10.88l4.14-18.57c.17-.62.34-1.11.51-1.87l.62-1.73c0,4.28.06,14.32.8,18.09.22,1.13.39,1.64.62,2.6.6,2.38,2.58,2.38,3.43.09l5.47-15.76c.26-.82.09-.6.6-1.19A62.73,62.73,0,0,1,592,655c-.45,3.74-1.53,11.11-1,14.68.43,2.78-.37,6.32,2.24,6.32.71,0,.85-.48,1.48-.88,0-2.06-.6-3.51-.6-5.92v-4.42c0-9.33,2.69-15.56,1.42-25.91-.29-2.1-.31-2.69-2-3.6-1.19.62-1.41.54-1.75,2.07-.26,1.13-.37,2.1-.63,3.23l-1.7,6.24c-.34,1.07-.62,1.87-.93,2.92l-2,5.69c-.25.68-.28.74-.54,1.53-.42,1.42.32.6-.7,1.34l-.4-20.87c-.23-1.75.23-5.41-2-5.41-1.53,0-1.92,2.75-2.38,4.11-.25.74-.59,1.7-.82,2.44s-.37,1.67-.65,2.58C577.39,646.54,572.34,669.08,572.34,673.33Z" fill="#fff" fill-rule="evenodd"/><path d="M554,435.16c0,2.72,1.39,5.25,2.35,7.09,2,3.91,4.17,6,6.84,9.13l12.58,11.87c.29.26.37.32.63.57a1.77,1.77,0,0,1,.17.14,210.36,210.36,0,0,0,17.2,12.59c8.59,5.75,26.22,16.21,36.09,21.17,1.84.94,8.78,4,10.31,4.14v.6a9.45,9.45,0,0,0-1.92.71L632,505.4v.88c6,0,7-.88,11.9-2.24,3.29-.9,3.12-.17,3.12-3.37,0-1.73-3.43-9.72-5.58-9.72-.69,0-.34.08-1.2.28-.19.79-.28.57-.28,1.19,0,1.59,3.35,5.13,3.54,7.37-2.92-.68-13.69-5.47-16.8-7.11l-9.56-5.19c-2.12-1.19-3.82-2.3-5.92-3.54l-19.25-12.33a183,183,0,0,1-15.25-11.31l-2.52-2.19a23.76,23.76,0,0,0-2.55-2.46c-2.36-1.85-9.58-10.18-11.17-12.73-1.33-2.13-2.53-3.52-3.83-5.9C555.9,435.73,555.68,434.51,554,435.16Z" fill="#fff" fill-rule="evenodd"/><path d="M169.51,369.62c0,1.71,2.3,8.23,2.84,10.78.34,1.64.14,2.43,1.58,2.8,1.25-.79.91-.79.91-4.11l-.88-3.54a18.58,18.58,0,0,0-.54-1.84,3.29,3.29,0,0,1-.36-2c1.47,1.08,4,7,17.71,13.89,6.55,3.26,21.15,8.51,29.14,10.69,1.87.51,4.28,1.11,6.24,1.73,5.55,1.81,31.09,7.23,35.91,7.8,1.36.14,1.76-.49,1.9-1.93-1.95-1.31-14.6-3.77-17.74-4.4L230.85,396c-10.48-2.61-21.4-5.53-31.32-9.7-1-.42-1.67-.7-2.69-1.16a68.21,68.21,0,0,1-18.54-11.56c-.85-.8-1.33-.85-2-1.85l10.49,1.65c2.47.4,2.78,0,2.78-1.65,0-1.47-4.11-1.7-6.69-2.12C182,369.4,169.51,366.9,169.51,369.62Z" fill="#fff" fill-rule="evenodd"/><path d="M208.46,210c0,8.47,13.8,4.76,20.47,7.57,7.25,3.06,8,10.12-1.19,15.25-5.82,3.26-15.43,6.12-22.11,2.15-2.75-1.64-2.58-3.6-4.54-4.9-.62.34-1.47.51-1.47,1.47,0,4.54,6.6,8.25,11.5,8.25,7,0,12.56-.54,18.66-4.37,4-2.49,7.91-5.61,7.91-11a10.61,10.61,0,0,0-3.32-7c-5.64-4.7-8.82-3.06-16.3-4.36-9.87-1.73-6.95-5.87-2.41-12.73,2.83-4.22,8.65-12.05,14-11.88,3.66.12,7.46,5.3,4.51,11.82-1.39,3-2.27,2.27-1.53,3.8,2.35-.65,4.14-6,4.14-7.68,0-3.37-.15-7.91-4.06-9.84-6.83-3.4-13.29,4.11-16.95,8.62C213.53,198,208.46,205.36,208.46,210Z" fill="#fff" fill-rule="evenodd"/><path d="M544.31,660.94a17.35,17.35,0,0,0-5.5.71c-1.7.48-3.52.91-4,2.52,1.59.91,9.5-.59,12.67-.9s8.82.08,11.54-.57c.17-1.82.62-.91-.28-2.67a45.41,45.41,0,0,0-7.46-10.82c-.71-.83-2.64-3.63-3.77-3.63a1.66,1.66,0,0,0-1.47,1.78c0,1.34,8.64,10,8.84,12.7-1.36-.65-9.24-2.49-11.2-3.26-.88-.34-1.41-.62-2.55-1a79.39,79.39,0,0,1-16.92-8.45,90.92,90.92,0,0,1-15.73-13.21c-.74-.76-.88-1.16-1.62-1.92s-.93-1.05-1.64-1.9L502,626.25a14.58,14.58,0,0,1-1.53-2l-4.26-6.66c-.45-.82-.76-1.39-1.27-2.26-1-1.65-3.4-6.3-4.65-6.3-1.59,0-.37,2.44.43,4.31.36.88.68,1.5,1,2.24,2.86,6.21,10.63,16.58,15.61,21.57,9.22,9.21,19.73,17.35,32.21,21.8C540.65,659.3,543.71,660.12,544.31,660.94Z" fill="#fff" fill-rule="evenodd"/><path d="M670.59,354.57c0,3.32,7.4-1.53,10-1.75l-3.21,29.56c-.11,1.16-.22,2-.31,2.92-.31,4-.62,7-.62,11.48a74.57,74.57,0,0,1-6.69,3.63c-1.39.57-2.16.23-2.16,1.7,0,2.78,8-1.59,8.56-2.38,2,1.33,1.56.93,2.95.59.6-2.52.14-2.32,2.47-3.43,1.5-.73,2.69-1.58,4.08-2.12,3.4-1.39,2.81-1.42,6.83-2,3.49-.51,1.87-3.07-.08-3.07-2.89,0-4.74,1-7.09,2.07-1.64.77-4.34,2.84-5.9,2.95L682.67,367c.48-5.22,1.61-9.81.34-15.34,3-1.58,6.6-3.23,10-3.23.32,1.11.66,1.22,1.79,1.48,4.54-3.94-.91-6.24-8.67-2.75l-10.69,4.65c-1,.39-1.79.79-2.69,1.13C671.67,353.27,670.59,353.24,670.59,354.57Z" fill="#fff" fill-rule="evenodd"/><path d="M126.14,527.23c0,2,.51,3.69,2.35,3.86.91-1.73.6-3.41.6-5.93,1.25.34.54.23,2.24,2.78l4.51,5.84c4.5,5.64,14.76,12.27,21.4,15.19,9.49,4.23,18.14,5.73,29.11,5.73,2.13,0,2.49-2.18.68-2.78l-7.68-.57a78.79,78.79,0,0,1-17.72-4.13A66.66,66.66,0,0,1,141.11,535c-2.21-2-9.33-9.87-10-12.19,1.67.14,17.12,6.09,17.12,2.35,0-2.07-.45-1.56-4.42-2.38s-12.59-3.8-16-3.8c-1.36,0-1.25,2.41-1.39,3.63A44.14,44.14,0,0,0,126.14,527.23Z" fill="#fff" fill-rule="evenodd"/><path d="M644.34,382.64c-18.76,4.36-35.88,4.9-54.9,2.38-5.93-.8-8.79-2.38-17.1-2.38-1.05,0-.9.56-.9,1.75a38.36,38.36,0,0,1,4.36.68c9,1.51,24.75,4.34,32.83,4.34,8.27,0,16.69-.14,24.74-1.5l11.88-2.3a21.18,21.18,0,0,1,4.11-.93c-2.78,5.24-7.09,6.94-7.09,9.46,0,.8.8,1.17,1.48,1.17,2,0,9.72-9.53,9.72-12.39,0-1.33-2.21-1.59-3.49-1.81a26.07,26.07,0,0,1-4.05-1.25c-1.87-.63-6.21-2.55-8.08-2.55-1.42,0-1,1-.17,1.61a15.19,15.19,0,0,0,2.33,1.25C641.06,380.68,643.83,381.93,644.34,382.64Z" fill="#fff" fill-rule="evenodd"/><path d="M104,313.56c-.51,0-.45.56-.82.93-.59.57-.48.43-1.3.77-1,.42-1.73.73-2.72,1.13-2,.79-3.63,1.39-5.47,2.21-4.82,2.13-6.89,2.38-11.83,3.52,0,1.24,0,1.33.91,1.75,4.4,2,11.43-2.26,15.62-4.11a19.86,19.86,0,0,1,4.45-1.78c0,2.29-1.9,14.28-2.38,17.12-.4,2.41-4.14,20.07-.6,20.07,2.58,0,1.68-4.45,2-6.86l.82-7.77c.77-5.3,1.45-9.64,2.3-14.8a32.54,32.54,0,0,0,.51-3.62c.22-4.48-1-5.08,2.41-6.15,5.16-1.65,12.27-5.05,17.37-5.05,1.56,0,5.3,2.66,5.3,0,0-2.18-3.37-3-4.42-3-4.7,0-14.31,3.38-19.44,5.39C104.54,314.18,105.9,313.56,104,313.56Z" fill="#fff" fill-rule="evenodd"/><path d="M99.86,496.84c0-4.93-2.63-26.36-4.7-30.7-1.84-.42-.94,0-2.07,0-.51,2.24,1,7.09,1.39,9.53a198.81,198.81,0,0,1,2.75,32.4c2.75,1.84,2.75.34,3.74-2.16,1.67-4.33,3.12-13.23,4.62-19.27a148.08,148.08,0,0,1,6-17.63c.51-1.33,2-4.59,2.15-5.81-1.21-1.28-2.26-1.87-3.2,0-2.92,5.87-6.83,17.75-8.45,24.07-.39,1.59-.7,3.49-1,4.91l-.74,3.71A1.58,1.58,0,0,1,99.86,496.84Z" fill="#fff" fill-rule="evenodd"/><path d="M320.91,221.77c-1.05,0-1.19-1.3-1.19-2.35,0-2.38,4.17-6.61,6.21-7.09a34.61,34.61,0,0,1-1.59,5.5C323.91,218.82,322,221.77,320.91,221.77Zm-.6,2.95c4.29,0,4.65-2.61,6.21-4.42,0,6.32,0,9.24-2,14.79-1.81,5-8.33,10.15-14.09,6.35-1.61-1.07-2-2.24-3.34-2.24-.82,0-3,1.79,1.7,5.05,6.09,4.22,14.09.48,17.57-5.84,5.25-9.58,2.84-18,2.84-27.55-1.42-1-.14-.88-3.23-.88-3.69,0-9.5,6.38-8.73,11.05C317.54,222.9,318.3,224.72,320.31,224.72Z" fill="#fff" fill-rule="evenodd"/><path d="M677.08,492.11c0,2.3-1.81,7.63-2.35,10.91-1.62,9.61-5,27.24-5,35.72,0,1.13.2.57.29,1.79,2.55.59,2.94-.06,6.74-1.25.83-.26,1.56-.63,2.61-.94l8-2.6c2.13-.63,4.8-1.08,4.8-2.58,0-3-8.08.05-9.5.51-3,.9-7.4,2.77-9.67,3.31,0-8.67,1.62-15.36,2.87-22.5l3.62-22.06c0-1.53-.31-3.26-1.78-3.26C676,489.16,677.08,491.17,677.08,492.11Z" fill="#fff" fill-rule="evenodd"/><path d="M147.37,345.45c-3.43,0,1.48-6.18,3.32-7.91a2.89,2.89,0,0,1,3.2-1C153.24,337.79,149.67,345.45,147.37,345.45Zm-3.23-.91c0,2.49,1.73,4.39,4.08,3.54,3.49-1.22,3.32-3.14,4.77-3.54,0,5.38,2.26,13.55-1.25,18.54-1.76,2.49-2.92,2.72-5.84,2.72-7.14,0-9-4.71-10.32-4.71-5.1,0,1.39,8,10.91,8,6.78,0,10.35-6.1,10.35-11.23l-1-14.68c-.63-4.42,1-4.11-.57-6.21l-.25-.34c-.6-.88-.66-1.78-2.36-1.78C149.64,334.82,144.14,342.13,144.14,344.54Z" fill="#fff" fill-rule="evenodd"/><path d="M273.69,259.27c2.89-.25.34-3.91,2.66-8.27,2.21,1.16,1.53.42,2.1,3.23a20.2,20.2,0,0,0,1.27,4.31c5.47,13.54,11.28,23.38,23.08,31.54,1.81,1.25,12.47,7.83,14.28,7.83.4,0,3.38-1.14-1.67-3.63-9.13-4.51-14-7.85-21.15-14.88-2.83-2.81-6.4-8.31-8.39-12s-5-10.41-6-14.69c1.51.14,7.23,3,8.56,3,.37,0,.37-.28.63-.57l.42-.45a.83.83,0,0,0,.12-.17c-1-1.9-2.22-2-5.36-3.2l-6.38-2.47c-3.09-1.25-3.57-1-4.28,2.64C273.23,253.46,272.92,257.63,273.69,259.27Z" fill="#fff" fill-rule="evenodd"/><path d="M720.48,378.78c.17-2.21,1.42-5.1,3.23-5.61A6.06,6.06,0,0,1,720.48,378.78Zm9.72,1.79a9.69,9.69,0,0,1,2-5.08c1.16-1.73,1.41-2.49,3.31-3.48a21.4,21.4,0,0,1-1,2.83,25.88,25.88,0,0,1-2.26,5.39C731.82,380.85,730.2,382.49,730.2,380.57Zm-8,1.75c-.94,0-1.39-.82-1.47-1.75,4.13-1,7.79-9.75,2.35-9.75-3,0-5.59,5.15-5.59,8.84,0,2.49,1.53,5.61,3.83,5.61,4.42,0,4.39-2.29,6.78-2.95.36,1.39,2.18,2.16,4.33,1.11,2.55-1.22,2.1-2.55,3.35-3.46.45,1.93,1.64,2.67,3.54,2.67,1.28,0,8.62-4.65,5-6.21-1.53-.65-2.07,1.05-3.72,2.18-.9.65-.48.48-1.89.48a7.31,7.31,0,0,1-.26-3.51c.17-1.48.85-3.32-.4-4.42-4.42-4-8.9,5.44-10.46,6.83C726.32,379.18,723.69,382.32,722.24,382.32Z" fill="#fff" fill-rule="evenodd"/><path d="M683.89,655.05a7.8,7.8,0,0,1,1.3-3.43l2.52-2.5C687.09,651.87,687,654.76,683.89,655.05Zm-2.67,0a4,4,0,0,0,3.26,3.23c2.38,0,2.61-1.76,3.83-2.67,0,5.16,0,9-1.39,12.79a9.7,9.7,0,0,1-5.22,5.41c-6.8,2.67-6-2.89-8.19-3.06-3.74-.31-.74,6.72,4.17,6.72,4.62,0,7.48-1.05,10.54-4.79,4.17-5.08,3.63-16.1,3-22.31-.11-1-.31-3.89-1.42-3.89-2.63,0-5.18,2.3-6.57,4A8.46,8.46,0,0,0,681.22,655.05Z" fill="#fff" fill-rule="evenodd"/><path d="M701.89,387.65c-2,0-1.79-.85-1.79-3.26,0-2.58,3.74-8.87,6.38-8.36s.65,3.29-1,6.92C705,384.11,703.19,387.65,701.89,387.65Zm6.77-13.57c-8.7-2.05-14.71,12.3-9.49,16.29,1.67,1.28,3.31.68,4.76-.39a14.66,14.66,0,0,0,3.09-3.69c1-1.5,1.75-3.65,2.52-4.56,1.76,7.51,8.28,4.39,8.28,2.07a2,2,0,0,0-1.19-1.48c-1.62,0-5.87,5.53-3.6-12.72.45-3.43,1.53-5.87-1.42-5.87-1.28,0-1.13,2.27-1.7,4.79C709.54,370.31,709.31,372.74,708.66,374.08Z" fill="#fff" fill-rule="evenodd"/><path d="M715.15,529c-2.92,0-.82-4.88-.28-5.93,3.32-6.6,4.08-.34,4.62-3,.25-1.19-2.32-4.7-6.46,1.42-3.23,4.79-2.36,10.41,1.84,10.41,3,0,5.41-3.55,5.9-3.55,1.58,0,.25.48,1.89.14,2.07-.45,2.78-2.38,4.31-2.8.43,5.07,5.67,3.88,8.65-.2.62-.85,2.86-4.37,2.86-5.42,0-.53-1.64-3.31-3.46.4-.62,1.28-5.1,7.94-5.1,4.06,0-2.33,1.59-5-1.19-5-1.36,0-3.32,4-5.3,5.33,0,0-.48.25-.48.25s-.65.63-.43-.85l1.19-3.26c2.81-4.48,6.72-1.36,7.37-1.19l.66-.85c-.57-1.84-3.26-2.86-5.16-2.49a8.46,8.46,0,0,0-4.94,3c-2.55,3.63-1.67,4.51-2.18,5.81-.28.74.14,0-.34.54l-1.53,1.42C717.11,527.8,715.89,529,715.15,529Z" fill="#fff" fill-rule="evenodd"/><path d="M111.69,351.34c-.06-.11-.6-1.13-.6-1.19,0-3,2.3-5.95,3.6-7.91a13.54,13.54,0,0,1,2.69-2.92c1.22-1.05,2.27-1.67,4-1.27a10,10,0,0,0-2.16,3.46C117.84,344.31,115,351.06,111.69,351.34Zm-3-2.66c0,2.89.22,7.06,5,5,2.39-1,3.66-2.69,5-4.7,1,.74,1.84,3.77,6.75,2,1-.37,8.36-3.54,4.45-6.15-1.14.26-8.25,6.38-8.25,1.19,0-2.78,4.56-10-1.19-10C115.2,336,108.74,344.4,108.74,348.68Z" fill="#fff" fill-rule="evenodd"/><path d="M336.56,218.54c-2-3-.14-5-1.19-9.44a5.38,5.38,0,0,0-1.48-.31c-.79,1.67-3.54,13,3.23,13a3.85,3.85,0,0,0,2.16-.51c1-.6.59-.68,1.39-1.25l-.8,4.51c-.31,1.56-.51,2.86-.85,4.45l-1.7,6.26c-.42,1-.68,1-.76,2.19a.62.62,0,0,1,.11.17.51.51,0,0,0,.14.17c.2.17.06.14.46.42,2.41,1.65,3.34-2.61,3.94-5,1.13-4.39,2-10.57,3.11-14,.32-.91,3.41-11,.49-11-2,0-2.78,2.86-3.8,5.36C340.19,215.65,339.14,218.31,336.56,218.54Z" fill="#fff" fill-rule="evenodd"/><path d="M243.58,210.57l-5.44,1.62c-1.22.28-1.65-.06-1.65,1.33,0,2.5,5.22.34,5.93,0a26,26,0,0,1-.74,4.28c-.68,4.25-1.3,13.41,4.85,13.41,1.64,0,5.61-2.47,5.61-3.83a4.58,4.58,0,0,0-.28-1.47c-3.52-.29-2.24,1.47-5.33,1.47s-2.35-1.9-2.35-6.21c0-.76.9-8.84,2.35-8.84,3.91,0,5.33,1,5.33-1.19,0-1.79-3.46-1.76-5-1.76L248,205c.48-1.64,2.27-5.61.28-5.61-1,0-1.19,1.33-1.55,2.27l-2.22,5.75A19.79,19.79,0,0,0,243.58,210.57Z" fill="#fff" fill-rule="evenodd"/><path d="M268.07,227.38c-1-4.31,4.82-13.58,8.87-13.58,1.14,0,.09-.08.88.32-.08.82-.19.62-.82,1.22l-3.4,6.06C272,224.18,270.71,227.33,268.07,227.38Zm-2.63-1.47c0,3.43,2,6.63,6.37,2.24,1.73-1.73,1.93-2.84,3.07-3.12,0,4.11,3.91,5.39,8.3,1.81,2.55-2.07,3.32-3.17.85-4.47-2.41,1.27-2.44,3.25-5.92,3.25-1-4.28,4.56-13-2.64-13C271.7,212.61,265.44,221.68,265.44,225.91Z" fill="#fff" fill-rule="evenodd"/><path d="M284,214.68c0,2,2.89,1.19,4.11.6,0,3.49-1.16,6.46.88,10.34,4,7.69,13.12-4.73,8.28-4.73-1,0-1.62,1.42-2.07,2.07a5.56,5.56,0,0,1-2.35,2.07c-3.29-2.21-2-7.29-1.19-10.63l5.89-.28c.23-.34.91-1,.91-1.19,0-2.78-3.15-1.71-5.93-1.48,0-1.9,1-3.57,1.36-5.16a16.73,16.73,0,0,0,.43-5.47c-2.81-.65-2.07.63-2.64,3-.42,1.64-1,3.09-1.5,4.73-.85,3.12-.74,3.52-2.15,4S284,213.21,284,214.68Z" fill="#fff" fill-rule="evenodd"/><path d="M626.94,667.72c0,1.16-.28,2.94,1.76,2.94,1.75,0,1.47-4.56,1.47-6.49,2.32.54,2.52,1.48,5.61,1.48,1,0,1.14-.83,1.48-1.48-.71-1.33-.43-1.24-2.19-1.64-1.44-.34-2-.74-3.11-1,.56-2.21,6.6-9.5,2.8-8.68-1,.23-1.9,1.7-2.61,2.67a6.37,6.37,0,0,0-.48.71.62.62,0,0,0-.11.17l-.51.68c0-3.18.59-5.67.59-9.13,0-6.92.51-6.49-1.75-6.49a54.45,54.45,0,0,0-.94,6.15C628,655.13,626.94,659.33,626.94,667.72Z" fill="#fff" fill-rule="evenodd"/><path d="M167.75,329.8c1.19,1.78,1.65.59,5.31.28-.06,3.43-1.54,6.21.34,11.48a6.15,6.15,0,0,0,2.43,3.18c2.81,1.78,6.66-1.28,6.66-2.84a4.58,4.58,0,0,0-.28-1.47c-3.2-.77-1.81,1.53-4.73,1.76A4,4,0,0,1,176.2,340c-1.27-4.51.06-9.16.11-10.75,1.28,0,1.39-.28,2.95-.28a10.31,10.31,0,0,0,3-.31c.45-1.9.43-.57,0-2.36a23,23,0,0,0-5.3-.28c.37-1.64.68-2.69,1-4.62s1.28-3.6-1.3-3.66l-2.38,8c-.68,2.15-.91,1.3-5.13,2.83C168,328.86,168,328.75,167.75,329.8Z" fill="#fff" fill-rule="evenodd"/><path d="M601.26,668a12.29,12.29,0,0,1,1.81-5.87c1.19-2,1.73-3.09,3.8-4.17a7.28,7.28,0,0,1,.28,1.76c-1.3.34-1.36.94-1.73,2.1L603,667.12C602.82,667.46,601.26,669.42,601.26,668Zm-2.67,0c0,3.06,3.09,4.73,6.18,1.73l.29-.29c1-1,1.24-2.29,2.09-2.92.14,1.76,1.85,4.71,3.83,4.71,2.44,0,5.5-5,1.79-5-1,0-.94.85-1.79,1.48a8.19,8.19,0,0,1-1.05-2.78l-1.59-6.07c0-.62.57-4.48-3.11-2.52a12.44,12.44,0,0,0-3.92,4C599.73,662.81,598.59,665.05,598.59,668Z" fill="#fff" fill-rule="evenodd"/><path d="M303.79,217.63c.08-1,1.44-6,3.83-6.18C307.62,215,306.2,216.36,303.79,217.63ZM300.56,220c0,12.39,14.26,4.14,14.51,3.86,1-1,.2-1.87-.37-2.7-3.09.26-10.85,6.69-11.51-1.16,7.12-1.67,9.41-11.22,4.14-11.22C303,208.79,300.56,215.39,300.56,220Z" fill="#fff" fill-rule="evenodd"/><path d="M741.43,513.65a6.74,6.74,0,0,0-2.21.46c-1.25.37-1.31.17-1.93,1,.4.73.2.9,1.25,1.07.74.15,1.1-.17,2.29-.17,0,1.9-.68,4.6.68,7.57,3,6.69,7.55,4,8.51,1.87.62-1.41,0-.7,0-1.78-3.4-.8-2,1.19-3.85,1.19-1.22,0-2.07-3-2.36-4.14-.54-2.44.12-3.54.29-5.9a24.06,24.06,0,0,1,3.28-.28c3.55,0,2.61-2.66.85-2.66a9.33,9.33,0,0,0-3.54.59,36.81,36.81,0,0,1,1.36-5.13c.23-.65,2.78-7.71-.25-5.92-.4.22-.68,1.07-.85,1.56C744.15,505.35,741.6,511.64,741.43,513.65Z" fill="#fff" fill-rule="evenodd"/><path d="M156.84,483.86c0-2.95.4-3.71-1.47-4.14-1.11,1.62-.2,6-1.36,11.94a7,7,0,0,0-.12,3.71c4.71,1.11.94-2.61,6-10a4.86,4.86,0,0,1,2.58-2.41l.28,5.9c0,6.43,3.57,4.25,3.57,3.54,0-1.67-.48-2.12-.59-3.54s.05-2.81,0-4.14c-.4-7.8-3.92-6.83-7.43-2.41C157.61,483.15,157.75,483.24,156.84,483.86Z" fill="#fff" fill-rule="evenodd"/><path d="M123.79,490.35c0,3.52,4.17,2.84,6.12,3.32,3.09.76,2.13,4.05-1.7,4.05-.4,0-3.32-2.52-3.68.06-.2,1.47,1.21,3.2,4.28,3.2,6.43,0,9.92-10.63-2.07-10.63a6.79,6.79,0,0,1,2.63-4.73c.12,1.22.17,1.22,1.19,1.47,1-.71,2.3-4.11-.28-4.11C127.42,483,123.79,487.23,123.79,490.35Z" fill="#fff" fill-rule="evenodd"/><path d="M653.19,650.6c-1.68.39-4.31,1.24-4.74,3,1.14.74,1.82.65,3.86-.31L652,658c0,8.17,7.68,8.39,7.68,5,0-2.55-2.64-1-3.54-.91-1.37-2.55-.88-5.1-.88-8.84,0-1.59,2.15-.62,3.82-.6.43-.59.91-.76.91-1.47,0-1.73-2.69-1.47-3.85-1.47,0-2.75.73-3.69,0-6.78-2.53,0-1.59.74-2.07,3.2A30.57,30.57,0,0,0,653.19,650.6Z" fill="#fff" fill-rule="evenodd"/><path d="M702.48,531.09c-2.78,0-1.5-4.71-.68-6.58a16.55,16.55,0,0,1,.88-1.79c.6-1,.68-.62,1-1.67,1.79.14,2.07,1.84,2.07,3.83C705.71,527.49,705,531.09,702.48,531.09Zm-4.14-3c0,9.15,10.32,6.69,10.32-2.07,0-2.72.26-3.43-.88-5.61-.25-.51-.39-.8-.71-1.36-.51-.91,0-1-1.64-1C702,518.1,698.34,524.4,698.34,528.14Z" fill="#fff" fill-rule="evenodd"/><path d="M161.26,339.83c.23-.85.09-.48.6-1.16a2.32,2.32,0,0,1,1.16-.91A3.52,3.52,0,0,1,161.26,339.83Zm-4.14,3.23c0,6.3,6.69,4.4,10.12,3.63,2.36-.54,2.16,0,3.18-1.84-.54-1-.51-1.47-1.79-1.47-1.64,0-8.56,3.11-8.56,0,0-1.53,1-.09,4-2.78,2.49-2.24,3.66-6.8-.88-5.93a6.08,6.08,0,0,0-3.06,1.68A11.14,11.14,0,0,0,157.12,343.06Z" fill="#fff" fill-rule="evenodd"/><path d="M144.74,492.71c-3,0-.57-5.79.88-8,1.81.48,0,.88,2.66.88C148.28,487.94,148.05,492.71,144.74,492.71Zm.28,2.94c6.29,0,9-13.57,2.95-13.57h-1.16C141.76,482.08,137.11,495.65,145,495.65Z" fill="#fff" fill-rule="evenodd"/><path d="M638.14,658.87l1.19,3.83c1.9,3.68,5.84,1.76,8.24,0,5.65-4,2.39-7.2-.45-3.71-1.1,1.36-3.91,4.22-5.44,2,.57-.76,1.27-.91,2.07-1.47,1.56-1.11,5.47-6.21,1.19-6.21-2.69,0-4.11,2.13-5.22,3.94C638.9,658.53,638.87,657.88,638.14,658.87Z" fill="#fff" fill-rule="evenodd"/><path d="M258.94,214.4c-.34-1.45-.14-2.18-1.19-3-1.67,1.11-.51,3.37-1.19,8.25-.53,3.86-1.47,3.63-1.47,9.16,0,.93.74,1,1.47,1.19a2.29,2.29,0,0,0,1.08-1.59c.62-2.27,1.25-14.06,6.61-14.06.76,0,4.42,1.39,4.42-.28,0-2.24-4.65-4.45-7.88-1.7C259.94,213.12,259.63,213.89,258.94,214.4Z" fill="#fff" fill-rule="evenodd"/><path d="M770.06,522.81c2-.45,1.05-1.22,2.83-4.82,1-1.9,1.85-3.37,3.66-4.34,1.9,2.87.11,4.11,1.36,6.61.91,1.78,3.52,3.57,4.23.48-1.54-2.3-2.39-.37-2.36-5,0-2.61-.34-4.7-2.95-4.7-3,0-3.48,2-5.3,3.23,0-2.61.68-3.23-1.78-3.23a31.47,31.47,0,0,0-.29,6.49C769.44,520.26,768.19,521.56,770.06,522.81Z" fill="#fff" fill-rule="evenodd"/><path d="M671.19,653.26c-.06-3.2-.68-2.75-1.48-3-1.41,1-.88,5.44-.88,8.28,0,1.22,1.08,1.16,1.76,1.16,1,0,1.11-.76,1.42-1.53a10.53,10.53,0,0,1,1.13-2.13c.8-1.24,1.59-2.72,3.06-3.11.46,1.9.4,6.18,3.26,6.18,1,0,1.14-.83,1.48-1.48-2.27-4.28-.6-1.3-1.48-4.73C677.4,644.81,672.83,652.18,671.19,653.26Z" fill="#fff" fill-rule="evenodd"/><path d="M136.46,338.64c-.31-1.39-.68-2.86-2.07-3.23-1.87,1.36.37,1.64.31,7.09,0,2.46-1.56,7.65,1.16,7.65,2.53,0-.56-8.84,5.7-12,3.38-1.7,4.65.68,4.65-2.15,0-1.79-5.21-2.16-8.36,1.36A5.32,5.32,0,0,1,136.46,338.64Z" fill="#fff" fill-rule="evenodd"/><path d="M745.26,372a2.71,2.71,0,0,0,.48,1.58,2.36,2.36,0,0,0,.54.66c2.61,2.52,3.85.82,3.12,3.94-2.1.51-4.14-.32-4.14,1.78,0,3,7.68,2.21,7.68-3,0-3.23-5-4.16-5-5,0-4.57,3-1.36,3-5C750.87,364.35,745.26,367.75,745.26,372Z" fill="#fff" fill-rule="evenodd"/><path d="M619.54,657.09c-.45-1,0-1.76-1.16-1.76-1.76,0-1.5,4.62-1.48,6.49,0,3-.68,4.85,0,7.68,3.46.8,2.13-1.36,3.46-6.86,2-8.25,6.1-2.27,4.79-7.91C621.33,654.73,621.61,655.73,619.54,657.09Z" fill="#fff" fill-rule="evenodd"/><path d="M114,503.05c0,.4,2.49,2.89,3.17-1.27.2-1.19.26-1.62.4-2.84.74-6.63.57-6.8.57-13.6,0-1.76-.63-1.79-2.36-1.79-.53,2.3-1,11.48-1.19,14.77C114.52,500.05,114,501.12,114,503.05Z" fill="#fff" fill-rule="evenodd"/><path d="M761.19,518.1c.11-1.27.48-1.41.59-2.66a13.78,13.78,0,0,0,2.07-.31C763.85,517,763.17,518.05,761.19,518.1Zm-2.36,0c0,4.82,8,3.18,8-2.66,0-2.5-2.83-4.2-4.82-3.09A7.4,7.4,0,0,0,758.83,518.1Z" fill="#fff" fill-rule="evenodd"/><path d="M137.06,495.06c2.66,0,1.78-2.24,1.78-9.13,0-1.47-.08-3.85-1.47-3.85s-.94,1.33-.91,2.66a22.8,22.8,0,0,1-.11,3.71C136.12,489.87,135.58,495.06,137.06,495.06Z" fill="#fff" fill-rule="evenodd"/><path d="M662.63,652.07c0,1.36.82,2.1.9,3.85.09,2.16-.62,3.83,1.45,3.83s.31-5.87-.17-6.89-.51-1.39-1.59-1.67C663.05,651.45,662.63,651.93,662.63,652.07Z" fill="#fff" fill-rule="evenodd"/><path d="M754.1,521.05l1.19-.34c.45-1.84.09-1.84-.34-3.74s0-2.07-1.73-3c-1,1.81-.37,1.33-.28,3.54C753,519.46,752.88,520.2,754.1,521.05Z" fill="#fff" fill-rule="evenodd"/><path d="M663.51,642.63c0,2.21-.15,2.07,1.78,2.07S666.6,640.79,663.51,642.63Z" fill="#fff" fill-rule="evenodd"/><path d="M752.34,509.23c0,1,2.95,1.48,2.95-.28A1.48,1.48,0,1,0,752.34,509.23Z" fill="#fff" fill-rule="evenodd"/><path d="M115.82,477.06c0,2.55.74,2.15,2.36,1.78v-.59c.85,0,.08-1,.08-1-.42-.56,0-.25-.68-.51C117.58,476,116.25,476.8,115.82,477.06Z" fill="#fff" fill-rule="evenodd"/><path d="M137.37,475.3c3.88,0,2-2.35.56-2.35h-.56C136.74,474.22,136.77,474.17,137.37,475.3Z" fill="#fff" fill-rule="evenodd"/></svg>